<svg width="40" height="40" viewBox="0 0 40 40" fill="none" xmlns="http://www.w3.org/2000/svg">
<rect width="40" height="40" rx="8" fill="#FC5A5A" fill-opacity="0.1"/>
<path d="M20.0144 23.2154H18.0758L17.7641 22.2585H15.1335L14.8062 23.2154H12.8676L15.361 16.5828H17.5085L20.0144 23.2154ZM17.281 20.7687L16.4363 18.2752L15.5917 20.7687H17.281Z" fill="#FC5A5A"/>
<path opacity="0.3" d="M20.005 10C18.0267 9.99938 16.0926 10.5855 14.4474 11.6841C12.8022 12.7828 11.5197 14.3446 10.7622 16.1722C10.0048 17.9997 9.80624 20.0109 10.1918 21.9512C10.5774 23.8916 11.5297 25.6741 12.9284 27.0732C14.3271 28.4723 16.1092 29.4252 18.0495 29.8114C19.9897 30.1975 22.0009 29.9997 23.8287 29.2427C25.6565 28.4858 27.2188 27.2038 28.3179 25.559C29.4171 23.9141 30.0038 21.9802 30.0038 20.0019C30.0038 17.3498 28.9504 14.8062 27.0754 12.9306C25.2004 11.055 22.6571 10.0008 20.005 10ZM26.2729 25.1727L24.7395 23.6361C24.2706 23.7725 23.7846 23.8407 23.2964 23.8387H22.5047L25.0418 26.3758C23.4802 27.616 21.517 28.2385 19.5261 28.1246C17.5352 28.0107 15.6558 27.1683 14.2459 25.758C12.836 24.3478 11.9942 22.4681 11.8808 20.4772C11.7674 18.4863 12.3904 16.5232 13.6311 14.962L14.8467 16.1807L14.9308 15.9594H17.0596L14.8342 13.7402C16.3932 12.4608 18.3722 11.8069 20.3866 11.9055C22.4009 12.0042 24.3066 12.8485 25.733 14.2742C27.1595 15.6998 28.0048 17.605 28.1046 19.6193C28.2043 21.6336 27.5515 23.613 26.2729 25.1727Z" fill="#FC5A5A"/>
<path opacity="0.3" d="M19.8772 21.0896V18.7769L18.4746 17.3712L19.8772 21.0896Z" fill="#FC5A5A"/>
<path d="M23.2965 23.2153H20.4913V16.5827H23.2778C24.2257 16.5418 25.1538 16.8626 25.8741 17.4804C26.2079 17.7849 26.4705 18.1592 26.6434 18.5767C26.8163 18.9941 26.8953 19.4445 26.8746 19.8959C26.8951 20.3482 26.8161 20.7994 26.6433 21.2179C26.4704 21.6363 26.2078 22.0117 25.8741 22.3177C25.1604 22.9339 24.2386 23.2549 23.2965 23.2153ZM23.2965 21.7224C23.5449 21.7341 23.7931 21.6927 24.0242 21.6008C24.2554 21.5089 24.4642 21.3686 24.6367 21.1894C24.9669 20.8396 25.1461 20.3737 25.1354 19.8928C25.1531 19.4089 24.9795 18.9375 24.6523 18.5806C24.4749 18.406 24.2628 18.2706 24.0298 18.1831C23.7968 18.0956 23.5481 18.0579 23.2996 18.0726H22.2118V21.7224H23.2965Z" fill="#FC5A5A"/>
</svg>
