<svg width="320" height="174" viewBox="0 0 320 174" fill="none" xmlns="http://www.w3.org/2000/svg">
<path d="M100.945 107.042C110.76 114.064 139.059 107.909 163.145 66.5597C167.177 59.6033 172.743 53.663 179.418 49.1934V92.4407H181.332V106.505H291.484C291.883 114.785 291.074 123.08 289.081 131.126C279.038 173.109 319.666 174.638 298.968 216.605L25.7239 216.513C25.7239 216.513 -10.8197 174.213 19.5572 128.401C46.4864 87.7741 77.8963 90.5508 100.945 107.042Z" fill="#EAF6FE"/>
<path d="M181.333 106.5V92.4355H186.859V100.962H290.972C291.212 102.772 291.372 104.622 291.492 106.5H181.333Z" fill="#EAF6FE"/>
<path d="M190.318 92.4355H197.273H204.233H208.177H215.133H222.088H227.49L229.796 100.962H187.543V92.4355H190.318Z" fill="#F9FDFF"/>
<path d="M275.327 65.9189C283.847 75.8155 289.277 88.0019 290.944 100.965H284.814L275.327 65.9189Z" fill="#F9FDFF"/>
<path d="M243.164 100.965L232.989 63.3959V40.9697C233.449 41.0741 233.914 41.1824 234.374 41.2988L250.528 100.965H243.164Z" fill="#F9FDFF"/>
<path d="M250.528 100.965L234.379 41.2979C249.94 45.1138 264.696 53.5161 275.327 65.9189L284.813 100.965H250.528Z" fill="white"/>
<path d="M232.992 92.4379V63.3789L243.164 100.965H229.797L227.49 92.4379H232.992Z" fill="white"/>
<path d="M186.842 92.4355H187.542V100.962H186.842V92.4355Z" fill="#E2F3FE"/>
<path d="M232.988 92.4393H222.084V39.2568C225.753 39.582 229.396 40.1545 232.988 40.9702V92.4393Z" fill="#F3FAFF"/>
<path d="M222.087 92.4375H215.131V38.9541C217.44 38.9541 219.759 39.0544 222.087 39.255V92.4375Z" fill="#EAF6FE"/>
<path d="M215.133 92.4375H204.233V39.7847C207.84 39.2348 211.484 38.9572 215.133 38.9541V92.4375Z" fill="#F3FAFF"/>
<path d="M197.275 92.4389V41.2266C199.567 40.6238 201.889 40.143 204.231 39.7861V92.4389H197.275Z" fill="#EAF6FE"/>
<path d="M190.317 92.4379H179.417V49.1905C184.886 45.5574 190.922 42.8654 197.277 41.2256V92.4379H190.317Z" fill="#F3FAFF"/>
<path d="M88.0586 38.3535H89.7725V75.2851H88.0586V38.3535Z" fill="#EAF6FE"/>
<path d="M90.0559 38.6377H114.615C114.628 38.6377 114.639 38.6485 114.639 38.6618V75.3125C114.639 75.3258 114.628 75.3366 114.615 75.3366H90.0559C90.0426 75.3366 90.0319 75.3258 90.0319 75.3125V38.6618C90.0319 38.6485 90.0426 38.6377 90.0559 38.6377Z" fill="#F3FAFF"/>
<path d="M89.7724 75.6222H114.9C114.907 75.6222 114.913 75.6196 114.917 75.6151C114.922 75.6106 114.924 75.6045 114.924 75.5981V38.3776C114.924 38.3712 114.922 38.3651 114.917 38.3606C114.913 38.3561 114.907 38.3535 114.9 38.3535H89.7724C89.766 38.3535 89.7599 38.3561 89.7554 38.3606C89.7509 38.3651 89.7484 38.3712 89.7484 38.3776V75.5981C89.7484 75.6045 89.7509 75.6106 89.7554 75.6151C89.7599 75.6196 89.766 75.6222 89.7724 75.6222ZM114.332 75.0524H90.3451C90.3383 75.0524 90.3317 75.05 90.3265 75.0456C90.3214 75.0412 90.318 75.035 90.317 75.0283V38.9514C90.317 38.9514 90.317 38.9273 90.3451 38.9273H114.332C114.338 38.9273 114.344 38.9298 114.349 38.9344C114.353 38.9389 114.356 38.945 114.356 38.9514V75.0323C114.355 75.038 114.352 75.0431 114.347 75.0468C114.343 75.0505 114.337 75.0525 114.332 75.0524Z" fill="#DAECF7"/>
<path d="M92.4908 40.9053H112.137C112.15 40.9053 112.161 40.9161 112.161 40.9294V73.0258C112.161 73.0391 112.15 73.0499 112.137 73.0499H92.4908C92.4776 73.0499 92.4668 73.0391 92.4668 73.0258V40.9294C92.4668 40.9161 92.4776 40.9053 92.4908 40.9053Z" fill="white"/>
<path d="M96.8285 50.0176H107.841C107.854 50.0176 107.865 50.0284 107.865 50.0417V62.9822C107.865 62.9954 107.854 63.0062 107.841 63.0062H96.8285C96.8152 63.0062 96.8045 62.9954 96.8045 62.9822V50.0417C96.8045 50.0284 96.8152 50.0176 96.8285 50.0176Z" fill="#EAF6FE"/>
<path d="M97.6799 61.4157C97.6799 61.4598 98.2125 61.7006 99.2497 61.5762C99.8884 61.494 100.496 61.251 101.016 60.87C101.722 60.3416 102.211 59.5722 102.389 58.7072C102.491 58.1659 102.447 57.6074 102.263 57.0886C102.078 56.5698 101.76 56.1093 101.34 55.7539C101.101 55.5554 100.83 55.3981 100.539 55.2885C100.222 55.1699 99.8816 55.13 99.546 55.1721C99.1759 55.2088 98.8269 55.3619 98.5489 55.6095C98.3926 55.7552 98.2744 55.9372 98.2046 56.1393C98.1347 56.3415 98.1155 56.5578 98.1485 56.7691C98.2236 57.1499 98.4153 57.4978 98.6971 57.7642C98.9431 58.0098 99.2237 58.218 99.53 58.3822C100.145 58.7239 100.83 58.9176 101.532 58.9479C102.269 58.9891 103.003 58.8222 103.651 58.4664C104.317 58.0978 104.859 57.5392 105.208 56.8614C105.571 56.1641 105.67 55.3592 105.489 54.5943C105.31 53.8543 104.887 53.1966 104.287 52.7285C103.991 52.4967 103.652 52.3249 103.29 52.2229C102.921 52.1248 102.535 52.1124 102.161 52.1868C101.767 52.2639 101.409 52.4666 101.14 52.7646C100.882 53.0714 100.74 53.4591 100.739 53.86C100.736 54.224 100.829 54.5824 101.008 54.8993C101.172 55.1878 101.384 55.4457 101.636 55.6617C102.096 56.0457 102.631 56.3299 103.206 56.4963C103.74 56.6504 104.301 56.6928 104.852 56.6207C105.366 56.5525 105.857 56.3642 106.285 56.0709C106.656 55.8275 106.969 55.5074 107.205 55.1322C107.442 54.7571 107.595 54.3356 107.655 53.8961C107.728 53.2339 107.548 52.5686 107.15 52.0343C106.912 51.7005 106.587 51.4394 106.209 51.2799C105.953 51.1836 105.809 51.1877 105.809 51.2117C105.809 51.2358 105.929 51.304 106.137 51.4445C106.439 51.6523 106.688 51.9269 106.866 52.247C107.158 52.7274 107.265 53.2982 107.166 53.852C107.095 54.2046 106.951 54.5386 106.744 54.8328C106.538 55.127 106.272 55.3751 105.965 55.5613C105.588 55.7812 105.168 55.9162 104.734 55.9571C104.299 55.998 103.862 55.9437 103.45 55.7981C102.987 55.6504 102.559 55.4086 102.193 55.0879C102.012 54.944 101.865 54.7611 101.764 54.5527C101.663 54.3444 101.609 54.1158 101.608 53.8841C101.608 53.6756 101.686 53.4746 101.826 53.3203C101.966 53.166 102.158 53.0694 102.365 53.0495C102.605 53.0041 102.851 53.0151 103.086 53.0816C103.333 53.1567 103.564 53.2779 103.767 53.4387C104.199 53.788 104.502 54.2726 104.628 54.815C104.755 55.3708 104.681 55.9538 104.419 56.4602C104.149 56.9828 103.731 57.4141 103.218 57.7C102.719 57.9754 102.153 58.1073 101.584 58.0812C101.024 58.0575 100.476 57.9066 99.9825 57.6398C99.7467 57.5209 99.5295 57.3682 99.3378 57.1864C99.1786 57.0453 99.0655 56.8593 99.0134 56.6528C98.9978 56.5765 99.0018 56.4974 99.0249 56.4231C99.048 56.3487 99.0895 56.2814 99.1456 56.2274C99.2935 56.0938 99.48 56.0109 99.6782 55.9907C99.8876 55.9591 100.102 55.977 100.303 56.0429C100.514 56.1168 100.712 56.2253 100.887 56.3639C101.232 56.6378 101.496 57.0015 101.648 57.4151C101.794 57.7985 101.838 58.2133 101.776 58.6189C101.659 59.349 101.285 60.0133 100.723 60.4928C100.283 60.8574 99.7653 61.1156 99.2096 61.2471C98.2486 61.4478 97.6879 61.3394 97.6799 61.4157Z" fill="#DAECF7"/>
<path d="M82.6572 13.2746L82.4529 15.4013L84.5753 15.6059C84.7028 15.6175 84.8267 15.6542 84.9399 15.7141C85.0531 15.7739 85.1534 15.8556 85.235 15.9544C85.3165 16.0533 85.3777 16.1674 85.415 16.2901C85.4523 16.4128 85.4649 16.5416 85.4523 16.6693L85.4202 17.0063C85.3959 17.2642 85.2705 17.5019 85.0716 17.6673C84.8727 17.8328 84.6165 17.9125 84.3591 17.8891L82.2367 17.6844L82.0325 19.8111C82.0209 19.9388 81.9843 20.063 81.9246 20.1765C81.8649 20.2899 81.7833 20.3904 81.6847 20.4721C81.586 20.5538 81.4722 20.6151 81.3497 20.6525C81.2273 20.6899 81.0987 20.7026 80.9713 20.6898L80.6349 20.6577C80.378 20.6323 80.1414 20.5064 79.9765 20.3074C79.8116 20.1083 79.7316 19.8522 79.7539 19.5944L79.9582 17.4678L77.8358 17.2631C77.7085 17.251 77.5849 17.214 77.4719 17.154C77.3589 17.094 77.2589 17.0123 77.1774 16.9136C77.096 16.8148 77.0348 16.7009 76.9973 16.5785C76.9597 16.456 76.9467 16.3273 76.9588 16.1998L76.9909 15.8587C77.0029 15.7312 77.0399 15.6073 77.0998 15.4941C77.1597 15.3809 77.2412 15.2806 77.3397 15.199C77.4383 15.1174 77.5519 15.0561 77.6742 15.0185C77.7964 14.9809 77.9248 14.9678 78.0521 14.98L80.1744 15.1846L80.3786 13.058C80.3907 12.9304 80.4277 12.8065 80.4875 12.6933C80.5474 12.5801 80.6289 12.4799 80.7275 12.3982C80.826 12.3166 80.9397 12.2553 81.0619 12.2177C81.1841 12.1801 81.3125 12.167 81.4398 12.1792L81.7802 12.2113C81.9075 12.2234 82.0311 12.2605 82.1441 12.3205C82.2571 12.3804 82.3571 12.4621 82.4386 12.5609C82.52 12.6596 82.5812 12.7735 82.6187 12.896C82.6563 13.0184 82.6693 13.1471 82.6572 13.2746Z" fill="#EAF6FE"/>
<path d="M225.599 12.7415L225.471 14.0897L226.817 14.2181C226.898 14.2246 226.978 14.2474 227.051 14.2852C227.124 14.323 227.189 14.375 227.241 14.4382C227.294 14.5014 227.333 14.5744 227.357 14.6531C227.381 14.7317 227.389 14.8144 227.381 14.8962V15.1089C227.374 15.1898 227.35 15.2684 227.312 15.3403C227.274 15.4121 227.223 15.4758 227.16 15.5276C227.098 15.5794 227.026 15.6184 226.948 15.6422C226.871 15.6661 226.789 15.6744 226.708 15.6666L225.363 15.5382L225.235 16.8864C225.219 17.0505 225.138 17.2015 225.012 17.3067C224.885 17.4119 224.722 17.4627 224.558 17.4482L224.346 17.4281C224.182 17.4119 224.031 17.3315 223.926 17.2046C223.821 17.0776 223.771 16.9142 223.785 16.75L223.917 15.4018L222.568 15.2734C222.404 15.2572 222.254 15.1767 222.15 15.0496C222.045 14.9225 221.996 14.7591 222.011 14.5953V14.3826C222.019 14.3013 222.042 14.2223 222.08 14.1502C222.119 14.078 222.171 14.0142 222.234 13.9623C222.296 13.9105 222.369 13.8716 222.447 13.848C222.525 13.8244 222.607 13.8166 222.688 13.8249L224.033 13.9533L224.162 12.601C224.176 12.4373 224.254 12.2859 224.379 12.1799C224.505 12.0739 224.667 12.0219 224.83 12.0353L225.043 12.0553C225.124 12.0633 225.204 12.0875 225.276 12.1264C225.348 12.1653 225.412 12.2182 225.464 12.282C225.516 12.3458 225.554 12.4193 225.577 12.4982C225.601 12.577 225.608 12.6597 225.599 12.7415Z" fill="#EAF6FE"/>
<path d="M43.2816 71.2718L43.1615 72.5438L44.4349 72.6682C44.5113 72.6752 44.5855 72.6973 44.6533 72.7333C44.7211 72.7692 44.7811 72.8183 44.8299 72.8776C44.8787 72.9369 44.9152 73.0053 44.9375 73.0789C44.9597 73.1525 44.9672 73.2297 44.9594 73.3062L44.9394 73.5068C44.9324 73.5835 44.9103 73.6581 44.8745 73.7262C44.8387 73.7943 44.7898 73.8547 44.7307 73.9039C44.6715 73.9531 44.6033 73.9902 44.5299 74.0129C44.4564 74.0356 44.3792 74.0437 44.3027 74.0365L43.0333 73.9121L42.9092 75.1881C42.9022 75.2646 42.8801 75.339 42.8442 75.4069C42.8083 75.4749 42.7594 75.535 42.7002 75.5839C42.641 75.6328 42.5727 75.6694 42.4993 75.6917C42.4259 75.714 42.3488 75.7215 42.2725 75.7137H42.0722C41.9957 75.7067 41.9213 75.6846 41.8533 75.6487C41.7853 75.6128 41.725 75.5638 41.6759 75.5045C41.6268 75.4453 41.5899 75.3769 41.5672 75.3033C41.5445 75.2298 41.5365 75.1524 41.5436 75.0757L41.6678 73.8037L40.3944 73.6834C40.3178 73.6758 40.2435 73.6532 40.1757 73.6169C40.1078 73.5805 40.0478 73.5311 39.9991 73.4715C39.9504 73.4118 39.9139 73.3431 39.8917 73.2693C39.8695 73.1955 39.8621 73.118 39.8698 73.0414V72.8407C39.8768 72.7642 39.8989 72.6898 39.9348 72.6219C39.9706 72.5539 40.0196 72.4938 40.0788 72.4449C40.138 72.396 40.2063 72.3594 40.2797 72.3371C40.3531 72.3148 40.4302 72.3073 40.5065 72.3151L41.7759 72.4355L41.9 71.1595C41.9071 71.0829 41.9291 71.0085 41.965 70.9406C42.0009 70.8727 42.0498 70.8125 42.109 70.7636C42.1682 70.7148 42.2365 70.6781 42.3099 70.6558C42.3833 70.6336 42.4604 70.6261 42.5368 70.6338H42.737C42.8151 70.6383 42.8915 70.6586 42.9617 70.6934C43.0318 70.7282 43.0941 70.7769 43.145 70.8365C43.1959 70.8961 43.2342 70.9654 43.2577 71.0402C43.2811 71.115 43.2893 71.1938 43.2816 71.2718Z" fill="#EAF6FE"/>
<path d="M271.635 138.988C271.635 138.988 274.654 141.275 274.654 144.301V159.773H252.137V143.607C252.137 143.607 252.454 139.642 255.101 138.988H271.635Z" fill="#F7FCFF"/>
<path d="M272.944 158.93C273.144 157.353 273.255 155.766 273.276 154.176C273.249 153.389 272.981 152.63 272.507 152.002C272.033 151.375 271.377 150.909 270.629 150.669C269.428 150.344 268.203 150.781 266.985 150.982C265 151.304 262.964 151 261.159 150.111C259.637 149.353 258.252 148.173 256.558 148.016C255.453 147.912 254.175 148.418 253.871 149.501C253.767 150.02 253.775 150.555 253.895 151.07C254.255 153.457 253.795 156.419 253.795 158.694C260.098 158.987 266.609 158.778 272.936 158.914" fill="#EAF6FE"/>
<path d="M276.079 161.955L272.687 159.772H252.137L248.837 161.955H276.079Z" fill="#EAF6FE"/>
<path d="M276.715 111.631V134.659H248.837V161.944H276.066V168.489H229.083V111.631C229.085 110.331 229.602 109.086 230.519 108.167C231.436 107.249 232.68 106.733 233.977 106.731H271.83C273.125 106.735 274.366 107.252 275.282 108.17C276.197 109.088 276.713 110.333 276.715 111.631Z" fill="#F7FCFF"/>
<path d="M279.238 152.31L279.518 145.332C279.636 143.32 279.107 141.323 278.009 139.634C277.112 138.318 275.786 137.143 273.904 137.143H255.083V138.984H273.552C273.552 138.984 276.876 139.333 277.316 143.892C277.578 146.694 277.578 149.515 277.316 152.318L279.238 152.31Z" fill="#EAF6FE"/>
<path d="M211.978 168.501H280.272V217.121H211.978V168.501Z" fill="#EAF6FE"/>
<path d="M226.257 168.501H292.781V217.121H226.257V168.501Z" fill="#FAFDFF"/>
<path d="M231.55 195.158C231.55 195.158 231.55 195.021 231.55 194.757C231.55 194.492 231.55 194.111 231.55 193.613C231.55 192.61 231.55 191.137 231.574 189.239C231.574 185.439 231.602 179.938 231.622 173.105L231.53 173.197L288.648 173.249L288.512 173.113C288.512 180.817 288.512 188.264 288.512 195.158L288.64 195.029L247.74 195.09L235.847 195.126H232.644H231.819H231.53H231.803H232.604H235.767L247.628 195.162L288.648 195.286H288.776V195.158C288.776 188.264 288.776 180.817 288.776 173.113V172.98H288.648L231.558 173.021H231.466V173.113C231.466 179.97 231.506 185.488 231.514 189.304C231.514 191.189 231.514 192.658 231.538 193.657C231.538 194.147 231.538 194.52 231.538 194.781C231.538 195.042 231.55 195.158 231.55 195.158Z" fill="#EAF6FE"/>
<path d="M229.785 168.5C229.785 168.613 240.14 168.705 252.914 168.705C265.688 168.705 276.051 168.613 276.051 168.5C276.051 168.388 265.696 168.3 252.914 168.3C240.132 168.3 229.785 168.392 229.785 168.5Z" fill="#EAF6FE"/>
<path d="M53.1328 179.302C53.1328 179.302 71.5933 144.449 64.4974 102.971C58.5548 106.181 54.8107 112.244 52.5482 119.599C52.2839 120.453 52.9486 121.545 54.3342 122.809C52.9286 123.459 51.503 123.507 51.3629 124.165C46.3213 147.374 53.1328 179.302 53.1328 179.302Z" fill="#B2DBED"/>
<path d="M52.6934 179.302C52.6934 179.302 35.2865 132.72 4.10077 139.004C45.4976 157.024 52.6934 179.302 52.6934 179.302Z" fill="#B2DBED"/>
<path d="M52.8928 178.588C52.8928 178.588 56.7491 145.303 38.3407 114.684C34.6286 119.069 33.5353 125.02 34.0159 131.536C34.0719 132.291 34.9289 132.957 36.4185 133.519C35.5055 134.47 34.3923 134.947 34.4844 135.525C37.6599 155.439 52.8928 178.588 52.8928 178.588Z" fill="#D7EDF9"/>
<path d="M53.0576 179.303C53.0576 179.303 67.9057 147.564 87.7031 146.637C58.5115 139.426 53.0576 179.303 53.0576 179.303Z" fill="#D7EDF9"/>
<path d="M51.5479 179.302C51.5479 179.302 15.2045 149.063 2.22247 153.678C42.7824 138.43 51.5479 179.302 51.5479 179.302Z" fill="#D7EDF9"/>
<path d="M65.6309 171.318L37.4604 170.885V175.351L39.0421 175.8L42.5419 193.62H59.6324L63.2523 175.912L64.6138 175.604L65.6309 171.318Z" fill="#E1F4FF"/>
<path d="M122.952 95.7969C122.279 96.5151 96.7875 141.781 96.7875 141.781L112.056 148.225L136.482 121.618L122.952 95.7969Z" fill="#F9CAAE"/>
<path d="M152.04 102.996C149.061 107.169 127.454 134.109 127.454 134.109L106.783 120.84C106.783 120.84 119.998 86.9337 124.294 82.6121C128.591 78.2906 141.861 69.0818 150.791 75.9834C159.721 82.885 155.02 98.8269 152.04 102.996Z" fill="#263239"/>
<g opacity="0.1">
<path opacity="0.1" d="M129.872 116.466C127.701 113.593 126.003 110.371 124.478 107.113C121.899 101.599 119.272 94.6054 121.651 88.5865C121.753 88.3756 121.771 88.1335 121.701 87.9097C121.631 87.6859 121.478 87.4974 121.274 87.3828C122.476 85.0956 123.529 83.3702 124.293 82.6118C128.582 78.2943 139.025 76.7094 147.955 83.611C156.885 90.5126 155.019 98.8266 152.04 102.996C150.318 105.403 142.401 115.39 136.022 123.408C133.828 121.226 131.774 118.907 129.872 116.466Z" fill="black"/>
</g>
<path d="M192.644 74.5316C185.092 62.4939 182.049 48.7549 182.049 48.7549L163.877 52.6109C162.475 57.1492 157.146 63.5532 151.299 70.206L172.699 86.0636C172.699 86.0636 195.347 75.7995 192.644 74.5316Z" fill="#F9CAAE"/>
<path d="M192.433 74.0968C179.391 76.2475 162.232 76.4642 152.894 68.0098C132.756 75.8262 134.874 75.7018 134.874 75.7018C126.297 80.212 124.872 104.412 124.872 104.412C124.872 104.412 124.335 119.142 128.536 126.184C126.645 144.393 121.592 162.907 116.863 187.74C119.91 192.584 123.874 192.672 131.763 196.488C139.652 200.304 171.967 212.875 185.021 200.264C186.71 180.285 193.53 152.374 194.435 140.617C195.34 128.86 220.299 98.8864 204.165 83.1973C200.593 79.7024 198.551 77.5998 192.433 74.0968Z" fill="#263239"/>
<path opacity="0.1" d="M195.026 114.167C199.222 112.747 203.471 111.174 207.323 108.951C205.373 114.882 202.49 120.832 199.939 126.157C197.849 124.953 195.63 123.97 193.476 122.915C189.713 121.059 185.848 119.419 181.899 118.004C186.342 116.97 190.724 115.689 195.026 114.167Z" fill="black"/>
<path d="M160.614 17.4759C150.899 48.0235 154.223 61.0482 166.116 64.2302C183.386 67.2517 194.186 42.4942 193.601 28.3941C193.469 25.1359 191.435 18.2182 186.874 14.0411C179.646 7.41239 164.674 4.51532 160.614 17.4759Z" fill="#FFCCAE"/>
<path d="M157.854 39.5606C157.552 41.926 157.471 44.3145 157.613 46.6949C157.786 48.962 158.122 51.2171 158.118 53.5163C158.115 53.5866 158.127 53.6568 158.152 53.7224C158.178 53.788 158.216 53.8476 158.266 53.8975C158.266 53.8975 158.266 53.9255 158.266 53.9456C158.118 54.9006 157.906 55.8797 157.065 56.4815C156.974 56.5465 156.904 56.6373 156.865 56.7424C153.505 49.5478 154.358 37.149 160.609 17.4955C161.334 17.4714 162.046 17.4554 162.747 17.4434C161.946 19.8509 161.221 22.2986 160.561 24.7542C159.282 29.6131 158.377 34.563 157.854 39.5606Z" fill="#EFBBA0"/>
<path d="M190.141 39.0668C191.218 37.3334 195.952 36.2861 194.866 42.5457C194.065 47.1401 189.977 49.7402 187.482 49.0702L190.141 39.0668Z" fill="#FFCCAE"/>
<path d="M191.959 19.2572C193.833 18.9001 195.371 19.3937 196.985 21.9135C198.598 24.4334 198.302 33.0364 193.289 37.7551C190.486 37.7551 188.636 38.2206 187.342 40.0423C186.089 36.6677 184.335 25.9301 187.114 22.1583C184.88 19.3254 179.714 19.2612 175.017 21.0027C173.471 21.5725 167.809 21.9015 164.285 20.6295C161.779 19.7227 160.858 17.1546 160.858 17.1266C160.337 20.8623 158.639 23.2176 157.654 20.0999C156.257 14.3258 158.002 11.1719 159.292 8.46345C164.666 -2.87203 178.388 -1.92507 187.174 6.01579C190.874 9.33818 191.691 15.67 191.959 19.2572Z" fill="#3A2F45"/>
<path d="M188.748 49.1493C188.115 49.2375 186.918 49.1493 186.577 48.3748C186.205 47.5081 188.736 36.2087 187.466 36.1365C187.014 36.1124 186.069 29.5118 185.748 33.5564C185.428 37.6011 179.762 51.8216 177.407 52.3272C175.053 52.8328 172.082 49.3218 170.38 48.2705C166.836 46.0877 162.707 45.4055 159.988 45.7225C157.526 46.0074 155.359 45.3413 155.003 45.5781C154.142 46.0879 153.501 46.9002 153.205 47.8572C149.837 57.6157 153.349 67.2298 162.563 70.3275C170.328 72.9277 174.472 72.073 179.862 66.6881C182.489 64.0439 187.783 53.3384 188.748 49.1493Z" fill="#3A2F45"/>
<g style="mix-blend-mode:multiply" opacity="0.1">
<g style="mix-blend-mode:multiply" opacity="0.1">
<path d="M159.28 8.46516C160.685 5.54803 163.168 3.68219 166.155 2.70312C164.582 4.66527 163.753 7.28145 163.112 9.65288C162.471 12.0243 161.658 14.3516 161.642 16.8113C161.642 17.4172 161.662 18.015 161.69 18.625C161.343 18.1672 161.062 17.6618 160.857 17.1243C160.337 20.86 158.639 23.2153 157.654 20.0976C156.244 14.3235 157.974 11.1616 159.28 8.46516Z" fill="#3A2F45"/>
</g>
<g style="mix-blend-mode:multiply" opacity="0.1">
<path d="M153.205 47.861C153.501 46.904 154.142 46.0916 155.003 45.5818C155.271 45.4053 156.552 45.7343 158.206 45.7905C157.678 46.8739 157.005 47.881 156.452 48.9564C155.738 50.3896 155.311 51.9491 155.195 53.5468C154.979 56.0057 155.283 58.4826 156.085 60.8165C156.887 63.1503 158.171 65.2889 159.852 67.0932C161.498 68.8065 163.456 69.9942 165.486 71.1699C164.569 70.9492 163.596 70.6643 162.559 70.3152C153.349 67.2336 149.837 57.6195 153.205 47.861Z" fill="#3A2F45"/>
</g>
</g>
<path d="M191.182 40.1631C190.261 40.3717 190.849 42.4101 190.565 43.4815C190.281 44.5528 188.062 45.8007 188.483 46.3705C188.903 46.9403 189.516 46.7958 190.177 46.2461C190.837 45.6964 192.387 44.0553 192.355 42.7151C192.323 41.3749 191.182 40.1631 191.182 40.1631Z" fill="#EFBBA0"/>
<path d="M160.509 29.9074C163.178 29.6988 165.211 30.1308 166.607 31.2035" stroke="#CD7F57" stroke-width="0.468585" stroke-linecap="round"/>
<path d="M175.325 33.4609C177.995 33.5733 179.964 34.242 181.232 35.4672" stroke="#CD7F57" stroke-width="0.468585" stroke-linecap="round"/>
<path d="M168.945 41.1611C166.543 40.5231 166.258 43.3961 166.202 44.1023C166.206 44.3563 166.264 44.6066 166.373 44.8358C166.482 45.0651 166.639 45.268 166.834 45.4305C167.029 45.5929 167.257 45.7111 167.502 45.7769C167.747 45.8427 168.003 45.8546 168.253 45.8117" stroke="#CD7F57" stroke-width="0.468585" stroke-linecap="round"/>
<path d="M175.231 42.4747C174.581 42.3011 174.248 41.4314 174.488 40.532C174.727 39.6327 175.448 39.0444 176.097 39.2179C176.747 39.3915 177.079 40.2613 176.84 41.1606C176.601 42.0599 175.88 42.6483 175.231 42.4747Z" fill="#D18665"/>
<path d="M162.79 39.1544C162.14 38.9808 161.807 38.1111 162.047 37.2117C162.286 36.3124 163.007 35.7241 163.656 35.8976C164.306 36.0712 164.639 36.941 164.399 37.8403C164.16 38.7396 163.439 39.328 162.79 39.1544Z" fill="#D18665"/>
<path d="M171.165 36.4961L171.362 36.5523L171.165 36.5001V36.4961Z" fill="#1C1328"/>
<path d="M171.361 36.5527L183.647 40.0075C183.817 40.0552 183.975 40.1377 184.112 40.2499C184.248 40.3621 184.36 40.5014 184.439 40.6592C184.519 40.8169 184.565 40.9895 184.575 41.166C184.585 41.3426 184.558 41.5192 184.496 41.6848L184.027 42.9568C183.43 44.661 182.206 46.0723 180.605 46.9023C179.004 47.7324 177.147 47.9186 175.414 47.4228C171.834 46.4678 170.552 43.2657 170.657 39.189L170.793 38.4667L170.833 38.5309L171.361 36.5527ZM182.534 43.9238L181.332 40.0477L177.268 38.9201L179.614 46.544C180.854 46.0252 181.883 45.1019 182.534 43.9238ZM178.661 46.8369L176.127 38.5791L174.084 38.0053L176.843 46.9814C177.457 47.0255 178.074 46.9768 178.673 46.8369H178.661Z" fill="#1C1328"/>
<path d="M181.33 40.0457L182.532 43.9218C181.877 45.0989 180.844 46.0195 179.6 46.534L177.254 38.9102L181.33 40.0457Z" fill="#1C1328"/>
<path opacity="0.5" d="M181.33 40.0457L182.532 43.9218C181.877 45.0989 180.844 46.0195 179.6 46.534L177.254 38.9102L181.33 40.0457Z" fill="white"/>
<path d="M176.126 38.5777L178.665 46.8355C178.068 46.9746 177.454 47.0233 176.843 46.98L174.084 38.0039L176.126 38.5777Z" fill="#1C1328"/>
<path opacity="0.5" d="M176.126 38.5777L178.665 46.8355C178.068 46.9746 177.454 47.0233 176.843 46.98L174.084 38.0039L176.126 38.5777Z" fill="white"/>
<path d="M154.948 34.9895L155.2 33.6533C155.233 33.4784 155.301 33.3122 155.401 33.1652C155.501 33.0183 155.631 32.8938 155.781 32.7998C155.932 32.7058 156.101 32.6443 156.276 32.6192C156.452 32.5942 156.631 32.6061 156.802 32.6542L169.216 35.9686L169.06 35.9285L168.519 37.9107L168.603 37.8705L168.323 38.7573C167.725 40.4609 166.5 41.8716 164.9 42.7016C163.299 43.5315 161.443 43.7181 159.709 43.2233C156.105 42.2643 154.84 39.0663 154.948 34.9895ZM167.298 38.7493L167.37 38.5286L166.569 35.9686L161.824 34.7006L164.142 42.2322C164.873 41.8916 165.529 41.408 166.071 40.8099C166.613 40.2118 167.03 39.5112 167.298 38.7493ZM163.065 42.6134L160.51 34.3475L158.152 33.7015L160.935 42.7538C161.648 42.8307 162.368 42.7831 163.065 42.6134Z" fill="#1C1328"/>
<path d="M166.58 35.9691L167.381 38.5292L167.309 38.7498C167.043 39.5107 166.627 40.2106 166.088 40.8086C165.548 41.4067 164.895 41.8908 164.166 42.2327L161.847 34.7012L166.58 35.9691Z" fill="#1C1328"/>
<path opacity="0.5" d="M166.58 35.9691L167.381 38.5292L167.309 38.7498C167.043 39.5107 166.627 40.2106 166.088 40.8086C165.548 41.4067 164.895 41.8908 164.166 42.2327L161.847 34.7012L166.58 35.9691Z" fill="white"/>
<path d="M160.508 34.3491L163.051 42.615C162.355 42.7888 161.634 42.8404 160.92 42.7675L158.149 33.7031L160.508 34.3491Z" fill="#1C1328"/>
<path opacity="0.5" d="M160.508 34.3491L163.051 42.615C162.355 42.7888 161.634 42.8404 160.92 42.7675L158.149 33.7031L160.508 34.3491Z" fill="white"/>
<path d="M169.039 35.9355L169.195 35.9757L171.166 36.5134L171.362 36.5655L170.833 38.5196L170.793 38.4554C170.673 38.2588 170.257 37.6329 169.9 37.5285C169.544 37.4242 168.835 37.7492 168.599 37.8616L168.515 37.9017L169.039 35.9355Z" fill="#1C1328"/>
<path d="M162.035 57.4375C162.609 57.9324 163.286 58.2921 164.017 58.49C164.748 58.6879 165.515 58.719 166.259 58.5811" stroke="#2B1E3A" stroke-width="0.468585" stroke-linecap="round" stroke-linejoin="round"/>
<path d="M161.086 49.291C160.949 50.1722 160.915 51.0664 160.986 51.9554C161.122 53.6246 161.723 55.5907 163.665 56.2969C166.023 57.1476 167.93 57.2439 169.571 55.4423C170.379 54.4883 171.017 53.4025 171.458 52.2322C171.266 52.2997 171.071 52.3559 170.873 52.4008C169.077 52.8177 167.196 52.6547 165.499 51.9353C164.085 51.3687 162.753 50.6158 161.539 49.6963C161.38 49.5701 161.229 49.4348 161.086 49.291Z" fill="#901913"/>
<path d="M161.266 51.1361C161.266 51.3127 161.266 51.421 161.266 51.421C161.266 51.4451 161.438 52.063 162.688 52.8936C163.164 53.1999 163.663 53.4682 164.182 53.6962C165.108 54.1229 166.098 54.394 167.113 54.4987C167.926 54.5925 168.749 54.5817 169.559 54.4666C169.647 54.3886 169.728 54.3026 169.8 54.2098C170.224 53.6437 170.585 53.0329 170.877 52.3881C169.081 52.805 167.2 52.642 165.503 51.9226C164.089 51.3561 162.757 50.6031 161.543 49.6836C161.389 50.1539 161.296 50.6421 161.266 51.1361Z" fill="white"/>
<path d="M159.809 49.1802C161.538 49.762 161.595 49.8744 161.166 51.8967C161.795 49.9305 161.903 49.8583 163.693 50.2154C161.959 49.6336 161.903 49.5212 162.335 47.5029C161.711 49.4691 161.599 49.5373 159.809 49.1802Z" fill="white"/>
<path d="M160.986 51.955C161.122 53.6242 161.723 55.5904 163.665 56.2966C166.023 57.1472 167.929 57.2435 169.571 55.4419C169.592 55.1748 169.592 54.9065 169.571 54.6394C169.571 54.519 169.551 54.4508 169.551 54.4508C168.166 54.4888 166.785 54.2768 165.475 53.8248C164.421 53.4603 163.417 52.9642 162.487 52.3482C162.053 52.0675 161.642 51.7521 161.258 51.4053L161.154 51.6099L160.986 51.955Z" fill="white"/>
<path d="M164.634 53.6602C165.426 54.0224 166.253 54.3034 167.101 54.4988C167.909 54.7043 168.748 54.7574 169.576 54.6553C169.576 54.5349 169.556 54.4667 169.556 54.4667C169.643 54.3887 169.724 54.3027 169.796 54.2099C169.752 54.2099 168.266 54.3904 165.471 53.8407C165.203 53.7845 164.914 53.7284 164.634 53.6602Z" fill="#E0DFDF"/>
<path d="M161.254 51.4216L161.15 51.6263C161.527 52.1868 162.057 52.6269 162.676 52.8942C163.17 53.1227 163.679 53.3197 164.198 53.4841C163.583 53.1816 163.008 52.8057 162.484 52.3646C162.049 51.9907 161.647 51.5799 161.283 51.1367C161.254 51.3133 161.254 51.4216 161.254 51.4216Z" fill="#E0DFDF"/>
<path d="M213.307 111.435L221.023 153.458C221.023 153.458 200.377 155.28 201.87 154.349C202.523 153.948 191.783 138.419 188.235 125.37L213.307 111.435Z" fill="#F9CAAE"/>
<path d="M210.162 92.9356C212.392 98.501 213.717 101.005 213.681 114.375C203.963 118.247 195.201 123.01 187.713 128.968C187.713 128.968 175.652 100.287 176.249 92.4782C176.846 84.6697 180.005 78.2777 191.277 77.8604C202.549 77.4431 207.935 87.3662 210.162 92.9356Z" fill="#263239"/>
<path d="M168.746 186.289L87.4224 178.025L93.7469 115.525L175.07 123.788L168.746 186.289Z" fill="#EEF5FF"/>
<path d="M183.242 179.607L168.75 186.292L175.073 123.792L189.341 119.334L183.242 179.607Z" fill="#DFE9F7"/>
<path opacity="0.15" d="M174.676 127.691L93.3525 119.428L93.626 116.725L174.949 124.988L174.676 127.691Z" fill="black"/>
<path opacity="0.15" d="M174.68 127.692L188.928 123.411L189.285 119.884L175.073 123.792L174.68 127.692Z" fill="black"/>
<path d="M177.264 125.22L90.3828 116.393L91.6973 103.402L178.578 112.23L177.264 125.22Z" fill="#EEF5FF"/>
<path d="M192.503 120.462L177.262 125.225L178.576 112.233L193.821 107.47L192.503 120.462Z" fill="#DFE9F7"/>
<path d="M193.821 107.471L111.456 99.1045L91.6983 103.406L178.576 112.234L193.821 107.471Z" fill="#F7F8F9"/>
<path d="M162.912 152.761C162.912 152.54 162.964 152.195 163.004 151.725C163.044 151.256 163.088 150.718 163.132 150.12C163.177 149.522 163.225 148.884 163.269 148.222C163.313 147.56 163.361 146.93 163.405 146.328C163.449 145.727 163.489 145.189 163.513 144.723C163.537 144.258 163.557 143.921 163.565 143.684C163.433 143.345 163.175 143.072 162.844 142.922C162.542 142.818 162.229 142.749 161.911 142.717L161.23 142.649C160.588 142.58 159.939 142.604 159.304 142.721C158.718 142.827 158.158 143.045 157.654 143.363C157.167 143.678 156.756 144.099 156.453 144.595C156.118 145.155 155.918 145.786 155.868 146.437C155.755 147.419 155.983 148.411 156.513 149.246C156.703 149.559 156.915 149.86 157.146 150.144C157.369 150.416 157.608 150.673 157.863 150.915C158.146 151.179 158.449 151.422 158.768 151.641C159.104 151.874 159.496 152.127 159.941 152.391L160.225 152.688L159.825 156.601C159.806 156.717 159.834 156.837 159.901 156.934C159.969 157.026 160.062 157.097 160.169 157.138C160.287 157.188 160.409 157.225 160.534 157.251C160.662 157.279 160.794 157.299 160.934 157.315L161.242 157.347L161.547 157.399C161.736 157.414 161.926 157.393 162.107 157.335C162.203 157.308 162.29 157.257 162.36 157.186C162.43 157.116 162.481 157.029 162.508 156.934L162.912 152.761ZM161.054 145.686L160.654 149.663C160.337 149.603 160.036 149.479 159.769 149.298C159.508 149.121 159.276 148.906 159.08 148.66C158.892 148.418 158.746 148.147 158.647 147.857C158.553 147.579 158.519 147.283 158.547 146.99C158.547 146.946 158.547 146.882 158.579 146.794C158.611 146.706 158.615 146.605 158.643 146.489C158.675 146.454 158.693 146.408 158.692 146.361C158.686 146.295 158.686 146.229 158.692 146.164V146.052C158.943 145.839 159.248 145.7 159.573 145.65C159.918 145.583 160.271 145.567 160.622 145.602H160.73L160.862 145.626C160.904 145.638 160.947 145.647 160.99 145.65L161.054 145.686Z" fill="#4D91FF"/>
<path d="M154.25 151.902C154.27 151.685 154.306 151.324 154.346 150.826C154.386 150.329 154.438 149.759 154.486 149.129C154.534 148.499 154.582 147.833 154.63 147.123C154.678 146.412 154.726 145.77 154.778 145.14C154.83 144.51 154.862 143.937 154.89 143.451C154.918 142.966 154.938 142.592 154.946 142.356C154.866 142.17 154.748 142.002 154.6 141.864C154.451 141.726 154.276 141.62 154.085 141.553C153.73 141.436 153.364 141.357 152.992 141.316L152.616 141.28C151.975 141.211 151.327 141.238 150.694 141.361C150.105 141.474 149.543 141.7 149.04 142.027C148.548 142.355 148.137 142.792 147.838 143.303C147.499 143.896 147.296 144.558 147.246 145.241C147.189 145.748 147.215 146.262 147.322 146.761C147.43 147.227 147.597 147.678 147.818 148.102C148.045 148.528 148.314 148.931 148.619 149.305C148.924 149.679 149.24 150.044 149.572 150.405V150.493L149.236 150.991C149.103 151.238 148.952 151.476 148.783 151.701C148.543 152.046 148.283 152.403 147.983 152.776C147.682 153.149 147.434 153.491 147.182 153.803C147.017 154.023 146.834 154.227 146.633 154.413C146.6 154.443 146.577 154.481 146.565 154.524C146.553 154.567 146.553 154.612 146.565 154.654C146.708 155.042 146.985 155.365 147.346 155.565C147.686 155.762 148.062 155.887 148.451 155.934H148.539C148.672 155.954 148.807 155.954 148.94 155.934C149.008 155.934 149.1 155.838 149.22 155.685L151.567 151.97L151.166 155.906C151.149 156.021 151.176 156.139 151.242 156.235C151.313 156.326 151.405 156.397 151.51 156.444C151.628 156.493 151.75 156.53 151.875 156.556C152.007 156.584 152.135 156.604 152.275 156.62L152.584 156.648L152.888 156.705C153.078 156.721 153.268 156.697 153.449 156.636C153.548 156.606 153.637 156.55 153.707 156.474C153.777 156.397 153.826 156.304 153.849 156.203L154.25 151.902ZM152.428 144.474L151.983 148.888C151.668 148.811 151.37 148.675 151.106 148.487C150.84 148.301 150.608 148.071 150.421 147.805C150.233 147.539 150.089 147.243 149.997 146.93C149.906 146.625 149.874 146.304 149.905 145.987L149.941 145.746C149.961 145.614 149.985 145.489 150.013 145.377C150.034 145.305 150.048 145.231 150.057 145.156L150.077 144.96C150.304 144.691 150.622 144.514 150.97 144.462C151.315 144.403 151.666 144.39 152.015 144.422H152.167C152.239 144.422 152.283 144.442 152.295 144.458L152.428 144.474Z" fill="#4D91FF"/>
<path d="M145.993 141.043L145.385 140.914C145.024 140.834 144.7 140.77 144.408 140.718L143.571 140.565C143.302 140.517 143.026 140.473 142.742 140.437L141.809 140.328L141.468 140.308C141.312 140.308 141.184 140.308 141.068 140.308H141.004C140.975 140.306 140.946 140.309 140.919 140.318C140.891 140.327 140.866 140.342 140.844 140.361L140.479 140.658C140.457 140.675 140.438 140.696 140.424 140.721C140.41 140.746 140.402 140.774 140.399 140.802L140.179 142.961C140.172 142.99 140.172 143.02 140.179 143.05C140.186 143.079 140.199 143.106 140.218 143.129C140.237 143.153 140.261 143.171 140.288 143.184C140.316 143.196 140.345 143.202 140.375 143.201L143.539 143.522L143.242 146.424L140.916 146.187C140.886 146.18 140.856 146.18 140.826 146.187C140.797 146.194 140.769 146.208 140.746 146.227C140.723 146.247 140.704 146.271 140.692 146.299C140.68 146.327 140.674 146.357 140.676 146.387L140.431 148.795C140.424 148.825 140.425 148.855 140.432 148.885C140.439 148.914 140.452 148.942 140.472 148.965C140.491 148.989 140.516 149.007 140.543 149.019C140.571 149.031 140.601 149.037 140.631 149.036L142.634 149.24L142.269 152.852L139.943 152.615C139.811 152.615 139.738 152.671 139.722 152.816L139.506 154.95C139.506 155.095 139.55 155.175 139.682 155.187L144.756 155.685C144.888 155.685 144.96 155.632 144.976 155.484L145.693 148.522C145.797 147.479 145.877 146.464 145.933 145.469C145.989 144.473 146.053 143.498 146.118 142.543L146.182 141.263L145.993 141.043Z" fill="#4D91FF"/>
<path d="M132.019 152.53C132.062 152.632 132.134 152.718 132.226 152.779C132.318 152.839 132.425 152.872 132.535 152.871C132.642 152.882 132.749 152.871 132.851 152.839C132.992 152.787 133.127 152.718 133.252 152.635C133.352 152.472 133.443 152.303 133.524 152.129C133.58 152.001 133.632 151.888 133.668 151.788L133.736 151.571V151.595C133.756 151.551 133.781 151.507 133.809 151.455C133.837 151.405 133.861 151.353 133.881 151.299C133.973 151.098 134.065 150.897 134.149 150.713C134.227 150.535 134.315 150.363 134.413 150.195C134.525 149.942 134.645 149.685 134.766 149.433C134.886 149.18 135.002 148.955 135.11 148.759L135.53 147.888L134.834 154.793C134.826 154.823 134.825 154.853 134.832 154.883C134.838 154.913 134.852 154.94 134.871 154.964C134.89 154.987 134.914 155.006 134.942 155.018C134.97 155.03 135 155.036 135.03 155.034L137.665 155.303C137.797 155.303 137.869 155.251 137.885 155.102C138 153.947 138.104 152.732 138.197 151.459C138.291 150.186 138.372 148.908 138.442 147.627C138.51 146.347 138.57 145.083 138.614 143.835C138.658 142.587 138.694 141.404 138.718 140.28C138.719 140.257 138.715 140.233 138.706 140.212C138.697 140.19 138.684 140.171 138.666 140.156C138.633 140.117 138.588 140.093 138.538 140.087L136.716 139.899C136.673 139.891 136.63 139.898 136.592 139.918C136.554 139.939 136.524 139.971 136.508 140.011L133.18 146.162C133.181 146.155 133.179 146.148 133.175 146.141C133.172 146.135 133.166 146.13 133.16 146.126C133.156 146.121 133.154 146.115 133.154 146.108C133.154 146.102 133.156 146.096 133.16 146.09V146.114L131.198 139.004C131.192 138.964 131.173 138.927 131.142 138.9C131.112 138.873 131.074 138.857 131.033 138.856L129.191 138.667C129.043 138.667 128.967 138.711 128.951 138.844C128.783 139.935 128.599 141.101 128.399 142.342C128.198 143.578 127.998 144.834 127.806 146.102C127.614 147.37 127.433 148.634 127.269 149.89C127.105 151.146 126.965 152.354 126.845 153.501C126.838 153.531 126.838 153.562 126.845 153.591C126.852 153.621 126.866 153.648 126.885 153.672C126.905 153.695 126.929 153.713 126.957 153.726C126.985 153.738 127.015 153.744 127.045 153.742L129.656 154.007C129.685 154.015 129.716 154.015 129.745 154.009C129.775 154.002 129.802 153.989 129.826 153.97C129.849 153.951 129.868 153.926 129.88 153.899C129.892 153.871 129.898 153.841 129.896 153.81L130.589 146.989L130.637 147.15L130.817 147.812C130.885 148.012 130.941 148.189 130.981 148.349C131.021 148.51 131.074 148.69 131.13 148.887L131.278 149.368H131.258C131.278 149.457 131.306 149.577 131.342 149.722C131.378 149.866 131.434 150.043 131.498 150.259V150.235L132.023 152.51L132.019 152.53Z" fill="#4D91FF"/>
<path d="M126.072 147.759C126.152 146.9 126.224 146.042 126.288 145.183C126.352 144.324 126.411 143.445 126.464 142.547C126.52 141.648 126.57 140.69 126.612 139.674C126.612 139.541 126.56 139.469 126.412 139.453L124.009 139.208C123.98 139.201 123.95 139.201 123.921 139.208C123.892 139.215 123.864 139.228 123.841 139.247C123.818 139.266 123.799 139.29 123.787 139.318C123.774 139.345 123.768 139.375 123.769 139.405C123.657 140.532 123.557 141.688 123.473 142.864C123.389 144.039 123.329 145.219 123.285 146.399C123.288 146.634 123.279 146.87 123.257 147.105C123.238 147.308 123.222 147.537 123.209 147.791C123.209 147.847 123.209 147.927 123.209 148.02C123.209 148.112 123.209 148.196 123.209 148.252C123.217 148.363 123.217 148.475 123.209 148.586L123.176 148.915C123.126 149.717 123.088 150.487 123.064 151.226C123.04 151.972 123.04 152.65 123.064 153.26C123.064 153.393 123.14 153.465 123.241 153.477L124.999 153.653C125.046 153.665 125.097 153.658 125.14 153.634C125.183 153.611 125.215 153.572 125.231 153.525L125.603 152.694L125.691 151.836C125.712 151.813 125.724 151.783 125.723 151.751V151.619L125.843 150.455C125.905 149.516 125.981 148.618 126.072 147.759Z" fill="#4D91FF"/>
<path d="M120.066 138.499C119.934 138.499 119.862 138.552 119.845 138.7C119.789 139.256 119.733 139.85 119.677 140.482C119.621 141.113 119.577 141.731 119.545 142.335L119.517 142.596L119.485 142.929C119.485 143.046 119.465 143.158 119.461 143.27C119.457 143.383 119.461 143.467 119.461 143.523C119.461 143.82 119.429 144.105 119.409 144.386C119.389 144.667 119.365 144.919 119.341 145.156C119.274 145.814 119.163 146.467 119.009 147.11C118.867 147.728 118.635 148.322 118.32 148.872C118.207 149.065 118.072 149.246 117.919 149.409C117.795 149.534 117.636 149.618 117.463 149.65C117.316 149.603 117.172 149.544 117.034 149.474C116.89 149.214 116.785 148.934 116.722 148.643V148.663C116.664 147.666 116.68 146.665 116.77 145.67C116.864 143.944 117.036 141.481 117.287 138.279C117.287 138.134 117.227 138.05 117.066 138.034L114.528 137.934C114.411 137.934 114.343 137.99 114.327 138.134L113.795 146.922C113.839 148.691 113.987 149.911 114.243 150.589V150.565C114.355 150.91 114.52 151.234 114.732 151.528C114.928 151.793 115.163 152.027 115.429 152.222C116.159 152.623 116.963 152.87 117.791 152.949C118.071 152.883 118.341 152.779 118.592 152.64C118.832 152.506 119.054 152.341 119.253 152.15C119.472 151.94 119.673 151.712 119.853 151.468C120.075 151.167 120.281 150.855 120.47 150.533C120.959 149.794 121.326 148.981 121.555 148.125C121.796 147.24 121.962 146.335 122.052 145.421L122.24 143.575C122.24 143.443 122.264 143.31 122.268 143.174C122.272 143.038 122.268 142.893 122.3 142.733C122.356 142.203 122.412 141.625 122.468 140.995C122.524 140.365 122.593 139.643 122.673 138.836C122.689 138.692 122.617 138.612 122.456 138.596L120.066 138.499Z" fill="#4D91FF"/>
<path d="M105.989 149.889C106.033 149.99 106.106 150.076 106.199 150.137C106.291 150.197 106.399 150.23 106.51 150.23C106.615 150.241 106.721 150.23 106.822 150.198C106.963 150.145 107.097 150.076 107.222 149.993C107.347 149.78 107.439 149.612 107.495 149.487C107.551 149.363 107.599 149.247 107.639 149.146L107.707 148.93V148.954L107.775 148.813C107.804 148.763 107.828 148.711 107.847 148.657C107.943 148.456 108.031 148.255 108.119 148.071C108.208 147.886 108.292 147.71 108.38 147.553C108.496 147.3 108.612 147.044 108.736 146.791C108.86 146.538 108.972 146.309 109.081 146.113L109.497 145.254L108.8 152.16C108.793 152.189 108.792 152.22 108.799 152.249C108.805 152.279 108.818 152.306 108.837 152.33C108.857 152.353 108.881 152.372 108.909 152.384C108.936 152.396 108.966 152.402 108.996 152.4L111.627 152.669C111.76 152.669 111.836 152.617 111.848 152.469C111.968 151.313 112.073 150.099 112.164 148.825C112.255 147.552 112.335 146.275 112.404 144.993C112.476 143.713 112.532 142.449 112.58 141.201C112.628 139.953 112.661 138.77 112.685 137.646C112.685 137.622 112.68 137.598 112.67 137.576C112.661 137.554 112.646 137.534 112.628 137.518C112.595 137.483 112.552 137.459 112.504 137.45L110.682 137.265C110.64 137.258 110.595 137.265 110.557 137.285C110.519 137.305 110.488 137.338 110.47 137.377L107.146 143.529C107.149 143.523 107.15 143.517 107.15 143.511C107.15 143.504 107.149 143.498 107.146 143.493C107.14 143.489 107.134 143.484 107.131 143.478C107.127 143.471 107.126 143.464 107.126 143.456V143.481L105.16 136.37C105.155 136.33 105.137 136.294 105.107 136.266C105.078 136.239 105.04 136.223 105 136.222L103.158 136.033C103.01 136.033 102.93 136.077 102.918 136.21L102.365 139.709C102.165 140.945 101.965 142.201 101.772 143.468C101.58 144.736 101.396 146 101.232 147.256C101.068 148.512 100.927 149.72 100.831 150.868C100.824 150.897 100.823 150.928 100.83 150.957C100.836 150.987 100.849 151.014 100.869 151.038C100.888 151.061 100.912 151.08 100.94 151.092C100.967 151.104 100.997 151.11 101.028 151.108L103.639 151.373C103.668 151.381 103.699 151.381 103.728 151.375C103.758 151.368 103.786 151.355 103.81 151.336C103.833 151.317 103.852 151.293 103.865 151.265C103.878 151.237 103.884 151.207 103.883 151.177L104.576 144.355L104.624 144.516L104.8 145.178C104.868 145.378 104.924 145.555 104.968 145.716L105.112 146.253L105.264 146.735H105.24C105.264 146.823 105.292 146.943 105.328 147.084C105.364 147.224 105.416 147.409 105.485 147.625V147.601L106.005 149.877L105.989 149.889Z" fill="#4D91FF"/>
<path d="M149.114 185.79L126.209 119.053L145.951 120.979L168.875 187.776L149.114 185.79Z" fill="#FFD997"/>
<path d="M171.59 179.07L151.848 121.558L154.527 121.818L172.158 173.191L171.59 179.07Z" fill="#FFD997"/>
<path d="M176.922 124.006L175.14 142.396L168.549 123.188L176.922 124.006Z" fill="#FFD997"/>
<path d="M88.9547 179.758C88.8037 179.744 88.6571 179.699 88.5232 179.628C88.3893 179.556 88.2708 179.459 88.1744 179.342C88.0781 179.224 88.0058 179.089 87.9618 178.944C87.9177 178.798 87.9026 178.646 87.9176 178.494L92.5427 130.941L110.018 181.861L88.9547 179.758Z" fill="#FFD997"/>
<path d="M154.525 121.817L168.549 123.186L175.14 142.394L172.157 173.19L154.525 121.817Z" fill="#FFD997"/>
<path opacity="0.3" d="M154.525 121.817L168.549 123.186L175.14 142.394L172.157 173.19L154.525 121.817Z" fill="white"/>
<path d="M110.018 181.864L92.5431 130.944L94.0046 115.909L126.208 119.055L149.112 185.792L110.018 181.864Z" fill="#FFD997"/>
<path opacity="0.7" d="M110.018 181.864L92.5431 130.944L94.0046 115.909L126.208 119.055L149.112 185.792L110.018 181.864Z" fill="white"/>
<path d="M170.84 186.81C170.809 187.114 170.659 187.394 170.422 187.589C170.186 187.783 169.883 187.877 169.579 187.849L168.878 187.777L145.948 120.979L151.847 121.577L171.589 179.089L170.84 186.81Z" fill="#FFD997"/>
<path opacity="0.3" d="M170.84 186.81C170.809 187.114 170.659 187.394 170.422 187.589C170.186 187.783 169.883 187.877 169.579 187.849L168.878 187.777L145.948 120.979L151.847 121.577L171.589 179.089L170.84 186.81Z" fill="white"/>
<path d="M185.36 181.305L170.063 187.786L177.411 124.175L191.935 119.572L186.02 180.371C186.001 180.57 185.929 180.762 185.813 180.925C185.698 181.089 185.541 181.22 185.36 181.305Z" fill="#FFC542"/>
<path opacity="0.15" d="M176.539 127.993L93.6221 119.891L93.8903 117.135L176.807 125.238L176.539 127.993Z" fill="black"/>
<path opacity="0.15" d="M176.533 127.986L191.041 123.568L191.39 119.969L176.922 124.005L176.533 127.986Z" fill="black"/>
<path d="M194.278 120.669L179.862 125.24C179.786 125.262 179.706 125.266 179.629 125.25C179.552 125.235 179.48 125.201 179.418 125.151C179.357 125.101 179.309 125.037 179.278 124.964C179.247 124.892 179.235 124.813 179.241 124.734L180.462 112.211L195.067 107.588C195.165 107.56 195.269 107.556 195.369 107.577C195.469 107.597 195.563 107.642 195.642 107.708C195.72 107.773 195.782 107.856 195.822 107.951C195.861 108.045 195.877 108.148 195.868 108.25L194.714 120.128C194.701 120.25 194.653 120.367 194.576 120.463C194.498 120.559 194.395 120.631 194.278 120.669Z" fill="#FFC542"/>
<path d="M194.515 107.157L112.025 99.0995C111.995 99.0957 111.964 99.0957 111.933 99.0995L92.7123 103.365C92.6807 103.372 92.6528 103.391 92.6336 103.417C92.6143 103.443 92.6051 103.475 92.6075 103.508C92.6099 103.54 92.6238 103.571 92.6467 103.594C92.6696 103.617 92.7 103.631 92.7324 103.634L180.451 112.213L195.58 107.843C195.888 107.747 194.839 107.189 194.515 107.157Z" fill="#FCDEB4"/>
<path d="M102.004 153.578C102.004 153.353 101.952 153.004 101.916 152.522C101.88 152.041 101.832 151.499 101.787 150.885C101.743 150.271 101.699 149.625 101.655 148.951C101.611 148.277 101.571 147.631 101.523 147.017C101.475 146.403 101.447 145.853 101.423 145.372C101.399 144.89 101.383 144.541 101.375 144.317C101.51 143.972 101.774 143.693 102.112 143.542C102.42 143.435 102.74 143.365 103.065 143.333L103.758 143.265C104.412 143.198 105.073 143.225 105.72 143.345C106.316 143.456 106.886 143.681 107.398 144.008C107.898 144.329 108.319 144.762 108.627 145.272C108.968 145.841 109.17 146.483 109.216 147.145C109.324 148.145 109.088 149.151 108.547 149.998C108.351 150.315 108.136 150.619 107.902 150.909C107.674 151.185 107.427 151.447 107.165 151.692C106.876 151.961 106.567 152.208 106.24 152.43C105.896 152.667 105.496 152.919 105.039 153.192L104.751 153.489L105.151 157.502C105.17 157.62 105.141 157.742 105.071 157.839C105.001 157.931 104.907 158.002 104.799 158.043C104.679 158.095 104.554 158.134 104.426 158.16C104.294 158.188 104.158 158.208 104.026 158.224L103.714 158.252L103.401 158.304C103.208 158.322 103.013 158.299 102.829 158.236C102.731 158.207 102.643 158.153 102.572 158.079C102.502 158.005 102.453 157.914 102.428 157.815L102.004 153.578ZM103.926 146.375L104.326 150.432C104.649 150.372 104.955 150.246 105.227 150.063C105.495 149.886 105.733 149.668 105.932 149.416C106.125 149.177 106.276 148.905 106.377 148.614C106.475 148.331 106.51 148.03 106.481 147.731C106.481 147.687 106.481 147.619 106.449 147.531C106.417 147.442 106.413 147.338 106.385 147.222C106.354 147.184 106.339 147.137 106.341 147.089C106.346 147.022 106.346 146.955 106.341 146.889V146.776C106.083 146.565 105.773 146.426 105.444 146.375C105.091 146.308 104.731 146.291 104.374 146.323H104.262C104.218 146.327 104.173 146.335 104.13 146.347L103.998 146.371L103.926 146.375Z" fill="#BF8216"/>
<path d="M110.821 152.737C110.801 152.512 110.769 152.147 110.725 151.638C110.681 151.128 110.641 150.554 110.592 149.908C110.544 149.262 110.496 148.588 110.452 147.902C110.408 147.216 110.36 146.522 110.312 145.896C110.264 145.27 110.228 144.692 110.2 144.174C110.172 143.657 110.156 143.299 110.148 143.059C110.232 142.872 110.354 142.704 110.506 142.566C110.657 142.428 110.835 142.323 111.029 142.256C111.392 142.138 111.766 142.06 112.146 142.023L112.527 141.987C113.181 141.917 113.843 141.947 114.489 142.076C115.088 142.195 115.659 142.428 116.171 142.762C116.675 143.097 117.097 143.543 117.404 144.066C117.748 144.672 117.953 145.348 118.005 146.044C118.06 146.562 118.03 147.085 117.917 147.593C117.806 148.068 117.634 148.527 117.404 148.957C117.177 149.384 116.909 149.787 116.603 150.161C116.291 150.538 115.966 150.911 115.626 151.276V151.365L115.97 151.874C116.102 152.128 116.253 152.371 116.423 152.601C116.667 152.954 116.935 153.319 117.224 153.7C117.512 154.081 117.78 154.43 118.025 154.751C118.194 154.974 118.38 155.184 118.581 155.377C118.615 155.406 118.641 155.444 118.653 155.487C118.666 155.53 118.666 155.575 118.653 155.618C118.509 156.015 118.224 156.345 117.852 156.545C117.507 156.746 117.124 156.872 116.727 156.914H116.639C116.506 156.931 116.372 156.931 116.239 156.914C116.171 156.914 116.075 156.814 115.954 156.657L113.576 152.861L113.976 156.874C113.994 156.992 113.965 157.113 113.896 157.211C113.824 157.302 113.731 157.374 113.624 157.42C113.503 157.47 113.379 157.509 113.251 157.536C113.119 157.56 112.983 157.584 112.851 157.596L112.535 157.628L112.226 157.68C112.033 157.694 111.838 157.671 111.654 157.612C111.554 157.578 111.464 157.519 111.394 157.441C111.324 157.362 111.275 157.266 111.253 157.163L110.821 152.737ZM112.707 145.173L113.143 149.663C113.465 149.588 113.77 149.452 114.04 149.262C114.312 149.074 114.549 148.841 114.741 148.572C114.937 148.294 115.083 147.985 115.174 147.657C115.267 147.347 115.301 147.021 115.274 146.698C115.274 146.666 115.274 146.586 115.238 146.449C115.202 146.313 115.194 146.192 115.166 146.072C115.145 146 115.13 145.926 115.121 145.851L115.101 145.651C114.872 145.376 114.55 145.193 114.196 145.137C113.843 145.076 113.484 145.063 113.127 145.097H112.971C112.925 145.097 112.879 145.11 112.839 145.133L112.707 145.173Z" fill="#BF8216"/>
<path d="M119.278 141.703L119.899 141.575C120.267 141.495 120.6 141.426 120.896 141.378L121.741 141.238C122.013 141.19 122.293 141.145 122.586 141.109C122.878 141.073 123.19 141.037 123.535 141.005L123.883 140.981C124.039 140.981 124.171 140.981 124.284 140.981H124.348C124.377 140.977 124.407 140.98 124.435 140.989C124.464 140.998 124.49 141.013 124.512 141.033L124.88 141.334C124.927 141.372 124.957 141.427 124.964 141.487L125.177 143.681C125.184 143.711 125.184 143.743 125.178 143.773C125.171 143.803 125.157 143.832 125.138 143.856C125.119 143.88 125.094 143.899 125.066 143.912C125.038 143.925 125.007 143.931 124.976 143.93L121.753 144.243L122.041 147.204L124.412 146.972C124.442 146.964 124.473 146.964 124.503 146.971C124.533 146.977 124.562 146.991 124.586 147.01C124.61 147.03 124.629 147.054 124.642 147.083C124.655 147.111 124.661 147.141 124.66 147.172L124.896 149.616C124.904 149.646 124.904 149.678 124.897 149.709C124.89 149.739 124.876 149.768 124.857 149.792C124.837 149.816 124.812 149.835 124.783 149.848C124.754 149.861 124.723 149.866 124.692 149.865L122.634 150.065L122.994 153.741L125.365 153.508C125.501 153.508 125.573 153.564 125.589 153.713L125.801 155.888C125.801 156.04 125.753 156.12 125.621 156.132L120.475 156.634C120.339 156.634 120.267 156.582 120.251 156.429L119.562 149.347C119.458 148.284 119.378 147.249 119.326 146.233C119.274 145.218 119.214 144.227 119.15 143.252L119.09 141.948L119.278 141.703Z" fill="#BF8216"/>
<path d="M133.477 153.468C133.432 153.571 133.358 153.659 133.264 153.72C133.17 153.782 133.061 153.814 132.948 153.813C132.84 153.825 132.731 153.813 132.628 153.777C132.487 153.724 132.352 153.654 132.228 153.569C132.126 153.402 132.033 153.229 131.951 153.051C131.895 152.923 131.843 152.806 131.803 152.702L131.751 152.473V152.493C131.751 152.449 131.711 152.405 131.683 152.353C131.654 152.302 131.63 152.248 131.611 152.192C131.515 151.988 131.423 151.791 131.339 151.595C131.255 151.398 131.162 151.225 131.07 151.065C130.954 150.808 130.838 150.547 130.714 150.286C130.59 150.026 130.474 149.797 130.366 149.596L129.937 148.71L130.622 155.752C130.629 155.781 130.63 155.813 130.623 155.843C130.617 155.873 130.603 155.901 130.583 155.925C130.564 155.948 130.539 155.967 130.511 155.98C130.483 155.992 130.452 155.998 130.422 155.996L127.739 156.257C127.602 156.257 127.526 156.205 127.514 156.052C127.397 154.873 127.295 153.634 127.21 152.337C127.118 151.041 127.042 149.741 126.974 148.433C126.906 147.125 126.854 145.841 126.814 144.569C126.774 143.297 126.742 142.089 126.722 140.957C126.72 140.933 126.724 140.909 126.734 140.886C126.744 140.864 126.759 140.844 126.778 140.829C126.81 140.789 126.855 140.764 126.906 140.757L128.764 140.576C128.807 140.568 128.852 140.575 128.89 140.597C128.929 140.618 128.959 140.652 128.976 140.692L132.344 146.972C132.343 146.965 132.345 146.957 132.348 146.951C132.352 146.944 132.357 146.939 132.364 146.936C132.367 146.931 132.369 146.924 132.369 146.918C132.369 146.911 132.367 146.905 132.364 146.9V146.924L134.394 139.701C134.4 139.661 134.419 139.623 134.449 139.596C134.479 139.568 134.517 139.551 134.558 139.549L136.436 139.364C136.588 139.364 136.669 139.412 136.681 139.545C136.849 140.66 137.033 141.849 137.233 143.112C137.433 144.375 137.628 145.653 137.818 146.948C138.014 148.24 138.19 149.528 138.354 150.812C138.519 152.096 138.655 153.324 138.755 154.504C138.762 154.534 138.761 154.565 138.754 154.596C138.747 154.626 138.733 154.654 138.713 154.678C138.693 154.702 138.669 154.721 138.64 154.734C138.612 154.747 138.582 154.753 138.551 154.752L135.888 155.013C135.858 155.02 135.826 155.02 135.796 155.013C135.767 155.005 135.739 154.991 135.715 154.971C135.691 154.952 135.673 154.927 135.66 154.898C135.648 154.87 135.642 154.839 135.643 154.809L134.967 147.835L134.915 147.999L134.73 148.673C134.658 148.878 134.602 149.075 134.558 149.223C134.514 149.372 134.462 149.568 134.406 149.769L134.254 150.258H134.274C134.254 150.351 134.222 150.471 134.186 150.615C134.15 150.76 134.094 150.949 134.022 151.165V151.141L133.477 153.46V153.468Z" fill="#BF8216"/>
<path d="M139.568 148.63C139.494 147.755 139.424 146.879 139.36 146.002C139.296 145.127 139.24 144.228 139.188 143.313C139.136 142.399 139.092 141.424 139.052 140.384C139.052 140.252 139.104 140.176 139.256 140.164L141.715 139.923C141.745 139.915 141.776 139.915 141.806 139.922C141.836 139.928 141.864 139.942 141.889 139.961C141.913 139.981 141.932 140.006 141.945 140.034C141.958 140.062 141.964 140.093 141.963 140.124C142.075 141.275 142.167 142.451 142.247 143.651C142.327 144.85 142.387 146.058 142.427 147.262C142.422 147.503 142.432 147.744 142.456 147.984C142.456 148.193 142.488 148.425 142.5 148.678C142.5 148.738 142.5 148.819 142.5 148.915C142.494 148.994 142.494 149.073 142.5 149.152C142.493 149.265 142.493 149.379 142.5 149.493L142.532 149.826C142.584 150.628 142.616 151.431 142.64 152.181C142.664 152.932 142.64 153.634 142.64 154.256C142.64 154.392 142.564 154.464 142.46 154.476L140.67 154.653C140.62 154.662 140.569 154.653 140.525 154.628C140.481 154.603 140.447 154.564 140.429 154.517L140.053 153.67L139.969 152.795C139.969 152.795 139.945 152.755 139.937 152.707V152.574L139.821 151.371C139.733 150.418 139.648 149.505 139.568 148.63Z" fill="#BF8216"/>
<path d="M145.711 139.232C145.848 139.232 145.92 139.288 145.936 139.436C145.992 140.006 146.048 140.612 146.1 141.254C146.152 141.896 146.2 142.53 146.228 143.144L146.256 143.413L146.288 143.75C146.288 143.87 146.308 143.987 146.308 144.099C146.308 144.211 146.308 144.296 146.308 144.356C146.308 144.657 146.34 144.95 146.36 145.234C146.38 145.519 146.4 145.78 146.424 146.037C146.489 146.712 146.599 147.383 146.753 148.043C146.899 148.673 147.133 149.278 147.449 149.841C147.568 150.04 147.71 150.223 147.874 150.387C147.999 150.516 148.162 150.603 148.338 150.635C148.488 150.588 148.634 150.529 148.775 150.459C148.922 150.193 149.032 149.908 149.099 149.612V149.632C149.165 148.616 149.153 147.597 149.063 146.583C148.975 144.825 148.809 142.313 148.567 139.047C148.567 138.899 148.627 138.818 148.791 138.802L151.382 138.706C151.498 138.706 151.566 138.762 151.582 138.915L152.09 147.871C152.037 149.671 151.88 150.916 151.618 151.606V151.582C151.5 151.932 151.33 152.262 151.113 152.561C150.913 152.831 150.673 153.067 150.401 153.264C150.032 153.467 149.643 153.629 149.239 153.749C148.832 153.873 148.414 153.957 147.99 153.998C147.711 153.927 147.442 153.82 147.189 153.681C146.946 153.543 146.721 153.374 146.52 153.179C146.297 152.966 146.093 152.732 145.912 152.481C145.685 152.174 145.477 151.854 145.287 151.522C144.788 150.764 144.416 149.929 144.186 149.05C143.948 148.146 143.783 147.224 143.693 146.294L143.509 144.408C143.509 144.275 143.485 144.139 143.481 144.007C143.477 143.874 143.481 143.722 143.449 143.557C143.397 143.02 143.341 142.43 143.289 141.788C143.237 141.146 143.165 140.411 143.084 139.589C143.084 139.44 143.145 139.356 143.309 139.34L145.711 139.232Z" fill="#BF8216"/>
<path d="M160.013 150.868C159.969 150.972 159.894 151.06 159.799 151.122C159.704 151.183 159.594 151.215 159.481 151.214C159.374 151.225 159.266 151.213 159.165 151.177C159.023 151.125 158.888 151.055 158.764 150.969C158.662 150.802 158.57 150.629 158.488 150.451C158.428 150.323 158.38 150.206 158.34 150.102L158.272 149.885V149.905C158.252 149.861 158.227 149.817 158.199 149.765C158.172 149.713 158.148 149.659 158.127 149.605L157.855 149.007C157.771 148.814 157.679 148.637 157.591 148.477C157.475 148.22 157.355 147.959 157.23 147.699C157.106 147.438 156.994 147.209 156.882 147.008L156.458 146.122L157.142 153.164C157.15 153.193 157.15 153.225 157.144 153.255C157.137 153.285 157.123 153.313 157.104 153.337C157.084 153.361 157.06 153.379 157.031 153.392C157.003 153.404 156.973 153.41 156.942 153.408L154.255 153.669C154.123 153.669 154.047 153.617 154.031 153.465C153.919 152.285 153.815 151.057 153.726 149.749C153.638 148.441 153.562 147.153 153.494 145.845C153.426 144.537 153.374 143.253 153.334 141.981C153.294 140.709 153.262 139.501 153.242 138.369C153.24 138.345 153.243 138.321 153.252 138.299C153.261 138.276 153.276 138.256 153.294 138.241C153.327 138.202 153.372 138.177 153.422 138.169L155.28 137.988C155.324 137.98 155.369 137.987 155.409 138.008C155.448 138.029 155.479 138.063 155.496 138.105L158.864 144.384C158.861 144.379 158.859 144.373 158.859 144.366C158.859 144.36 158.861 144.353 158.864 144.348C158.867 144.343 158.869 144.336 158.869 144.33C158.869 144.324 158.867 144.317 158.864 144.312V144.336L160.89 137.113C160.896 137.072 160.916 137.034 160.947 137.006C160.978 136.979 161.017 136.962 161.059 136.961L162.937 136.776C163.085 136.776 163.169 136.825 163.181 136.957C163.349 138.072 163.533 139.264 163.73 140.524C163.926 141.784 164.13 143.068 164.318 144.36C164.506 145.652 164.691 146.94 164.851 148.224C165.011 149.508 165.155 150.736 165.251 151.916C165.259 151.946 165.259 151.977 165.252 152.007C165.246 152.038 165.232 152.066 165.213 152.09C165.193 152.114 165.169 152.133 165.141 152.146C165.113 152.159 165.082 152.165 165.051 152.165L162.388 152.425C162.358 152.432 162.327 152.432 162.297 152.425C162.267 152.417 162.239 152.403 162.215 152.384C162.192 152.364 162.173 152.339 162.161 152.311C162.148 152.282 162.142 152.252 162.144 152.221L161.463 145.247L161.411 145.411L161.231 146.085C161.159 146.29 161.099 146.487 161.055 146.635C161.011 146.784 160.963 146.98 160.906 147.181L160.75 147.67H160.774C160.75 147.763 160.722 147.883 160.682 148.028C160.642 148.172 160.59 148.361 160.522 148.577V148.553L160.033 150.868H160.013Z" fill="#BF8216"/>
<path d="M180.452 112.212L179.25 124.675C179.226 124.881 179.123 125.069 178.964 125.201C178.804 125.333 178.6 125.397 178.393 125.381L174.918 125.04L170.168 111.205L180.452 112.212Z" fill="#FFD997"/>
<path d="M156.133 109.836L160.882 123.671L158.203 123.41L153.454 109.575L156.133 109.836Z" fill="#FFD997"/>
<path d="M90.6785 115.78L91.7636 104.653L91.203 110.379L93.5095 117.092L132.56 120.908L127.815 107.073L147.556 108.999L152.305 122.834L91.6035 116.904C91.469 116.891 91.3383 116.852 91.2189 116.789C91.0995 116.725 90.9938 116.639 90.9079 116.535C90.8219 116.43 90.7574 116.31 90.7181 116.18C90.6787 116.051 90.6652 115.915 90.6785 115.78Z" fill="#FFD997"/>
<path d="M170.156 111.203L174.905 125.039L160.881 123.67L156.132 109.835L170.156 111.203Z" fill="#FFD997"/>
<path opacity="0.35" d="M170.156 111.203L174.905 125.039L160.881 123.67L156.132 109.835L170.156 111.203Z" fill="white"/>
<path opacity="0.7" d="M91.7623 104.652V104.516C91.7743 104.39 91.811 104.268 91.8703 104.156C91.9296 104.045 92.0103 103.946 92.1078 103.866C92.2053 103.786 92.3177 103.726 92.4384 103.689C92.5592 103.653 92.6859 103.641 92.8114 103.653L127.801 107.072L92.9636 103.665C92.8199 103.65 92.6746 103.664 92.5363 103.706C92.3979 103.747 92.2692 103.816 92.1575 103.908C92.0458 104 91.9533 104.113 91.8855 104.241C91.8177 104.368 91.7758 104.508 91.7623 104.652Z" fill="white"/>
<path d="M93.5088 117.09L91.2023 110.377L91.7629 104.651C91.7764 104.507 91.8183 104.367 91.8862 104.239C91.954 104.111 92.0464 103.998 92.1582 103.907C92.2699 103.815 92.3986 103.746 92.537 103.704C92.6753 103.663 92.8205 103.649 92.9642 103.664L127.802 107.071L132.559 120.906L93.5088 117.09Z" fill="#FFD997"/>
<path opacity="0.7" d="M93.5088 117.09L91.2023 110.377L91.7629 104.651C91.7764 104.507 91.8183 104.367 91.8862 104.239C91.954 104.111 92.0464 103.998 92.1582 103.907C92.2699 103.815 92.3986 103.746 92.537 103.704C92.6753 103.663 92.8205 103.649 92.9642 103.664L127.802 107.071L132.559 120.906L93.5088 117.09Z" fill="white"/>
<path d="M153.454 109.577L158.203 123.412L152.305 122.834L147.555 108.999L153.454 109.577Z" fill="#FFD997"/>
<path opacity="0.35" d="M153.454 109.577L158.203 123.412L152.305 122.834L147.555 108.999L153.454 109.577Z" fill="white"/>
<path opacity="0.76" d="M176.873 125.575L176.351 125.522L170.073 187.567C170.067 187.624 170.084 187.682 170.12 187.726C170.157 187.771 170.209 187.799 170.266 187.805C170.347 187.813 170.429 187.788 170.492 187.737C170.555 187.685 170.596 187.61 170.604 187.528L176.873 125.575Z" fill="white"/>
<path opacity="0.76" d="M178.589 125.398C178.747 125.4 178.9 125.342 179.017 125.235C179.134 125.129 179.207 124.982 179.222 124.824L180.563 111.583L179.926 112.157L178.589 125.398Z" fill="white"/>
<path d="M179.928 112.163L92.7958 103.31C92.5592 103.286 92.3226 103.357 92.1383 103.507C91.954 103.658 91.837 103.876 91.813 104.113L179.857 113.059L179.948 112.165L179.928 112.163Z" fill="white"/>
<path d="M170.573 173.893C177.044 171.506 206.832 165.868 213.651 163.774C217.287 162.65 224.087 158.076 219.542 148.253C216.026 140.629 200.926 145.099 186.806 152.265C174.577 158.473 171.029 161.093 164.662 166.502C166.548 169.05 168.242 171.734 170.573 173.893Z" fill="#F9CAAE"/>
<path d="M172.923 170.333C173.676 165.666 169.267 163.841 169.267 163.841C168.158 162.396 166.934 161.043 165.607 159.796C163.873 158.279 155.869 153.159 155.869 153.159C155.869 153.159 154.559 154.764 154.756 155.567C154.952 156.369 155.841 157.441 156.413 158.331C156.986 159.222 160.618 162.26 160.618 162.26L155.649 163.483C155.649 163.483 139.751 165.458 138.75 165.602C137.749 165.747 138.013 167.572 139.039 167.564L153.234 167.488C153.234 167.488 139.179 170.164 137.909 170.594C136.64 171.023 136.84 172.777 138.206 172.624L154.784 170.766C154.784 170.766 143.652 173.242 142.414 173.575C141.177 173.908 141.377 175.365 142.663 175.256L155.04 174.229C155.04 174.229 149.718 175.938 147.856 176.356C145.994 176.773 146.527 178.912 148.192 178.667C149.666 178.45 164.462 175.726 168.615 174.959C168.595 174.943 172.411 173.415 172.923 170.333Z" fill="#F9CAAE"/>
<path d="M167.317 175.008C164.181 175.008 161.639 172.46 161.639 169.318C161.639 166.175 164.181 163.628 167.317 163.628C170.453 163.628 172.995 166.175 172.995 169.318C172.995 172.46 170.453 175.008 167.317 175.008Z" fill="#F9CAAE"/>
<path d="M167.176 168.339C166.982 168.367 166.8 168.452 166.654 168.583C166.508 168.714 166.405 168.885 166.356 169.076C166.308 169.266 166.317 169.466 166.382 169.651C166.448 169.836 166.566 169.998 166.723 170.115C166.881 170.233 167.069 170.301 167.265 170.31C167.46 170.32 167.654 170.272 167.823 170.171C167.991 170.07 168.125 169.922 168.209 169.744C168.293 169.567 168.322 169.368 168.293 169.174C168.253 168.916 168.114 168.684 167.905 168.527C167.696 168.371 167.434 168.304 167.176 168.339Z" fill="#F9CAAE"/>
<path d="M91.2344 159.091C89.112 159.251 85.1757 173.632 89.3443 175.944C93.5129 178.255 95.3189 161.727 93.2766 160.403" fill="#F9CAAE"/>
<path d="M92.9883 163.662C91.9111 163.505 91.2904 163.581 90.3654 163.196" stroke="#E5AF98" stroke-width="0.461376" stroke-linecap="round"/>
<path d="M92.5757 166.734C91.4945 166.578 90.8778 166.658 89.9528 166.269" stroke="#E5AF98" stroke-width="0.461376" stroke-linecap="round"/>
<path d="M92.1465 169.806C91.0653 169.654 90.4486 169.73 89.5195 169.341" stroke="#E5AF98" stroke-width="0.461376" stroke-linecap="round"/>
<path d="M91.6792 172.881C90.598 172.729 89.9813 172.805 89.0563 172.42" stroke="#E5AF98" stroke-width="0.461376" stroke-linecap="round"/>
<path d="M176.221 124.438C174.62 132.323 172.918 132.283 168.289 133.13C174.195 133.427 175.805 135.718 176.129 141.608C176.93 133.001 184.138 133.258 184.138 133.258C184.138 133.258 175.629 133.511 176.221 124.438Z" fill="white"/>
<path d="M100.787 99.332C99.6101 105.142 98.3567 105.11 94.9489 105.732C99.2978 105.953 100.483 107.638 100.723 111.98C101.324 105.64 106.63 105.828 106.63 105.828C106.63 105.828 100.355 106.013 100.787 99.332Z" fill="white"/>
<path d="M92.5717 148.947C91.5626 153.919 90.4894 153.891 87.5701 154.424C91.2943 154.613 92.3074 156.058 92.5116 159.773C93.0282 154.344 97.5732 154.505 97.5732 154.505C97.5732 154.505 92.1993 154.665 92.5717 148.947Z" fill="white"/>
</svg>
