<svg width="40" height="40" viewBox="0 0 40 40" fill="none" xmlns="http://www.w3.org/2000/svg">
<rect width="40" height="40" rx="8" fill="#FF974A" fill-opacity="0.1"/>
<path opacity="0.3" fill-rule="evenodd" clip-rule="evenodd" d="M12.5 26.25C12.5 26.9404 13.0596 27.5 13.75 27.5H27.9167C28.607 27.5 29.1667 26.9404 29.1667 26.25V17.0834C29.1667 16.393 28.607 15.8334 27.9167 15.8334H19.1667L17.0328 13.6995C16.7984 13.4651 16.4804 13.3334 16.1489 13.3334H13.75C13.0596 13.3334 12.5 13.893 12.5 14.5834V26.25Z" fill="#FF974A"/>
<path fill-rule="evenodd" clip-rule="evenodd" d="M10.833 24.5833C10.833 25.2736 11.3927 25.8333 12.083 25.8333H26.2497C26.94 25.8333 27.4997 25.2736 27.4997 24.5833V15.4166C27.4997 14.7263 26.94 14.1666 26.2497 14.1666H17.4997L15.3658 12.0327C15.1314 11.7983 14.8134 11.6666 14.4819 11.6666H12.083C11.3927 11.6666 10.833 12.2263 10.833 12.9166V24.5833Z" fill="#FFC542"/>
</svg>
