<svg width="40" height="40" viewBox="0 0 40 40" fill="none" xmlns="http://www.w3.org/2000/svg">
<rect width="40" height="40" rx="8" fill="#FF974A" fill-opacity="0.1"/>
<path opacity="0.5" fill-rule="evenodd" clip-rule="evenodd" d="M22 14.5592C22 14.5592 21.5 19.6437 19 20C19 20 20.5 14.0507 18.5 11C18.5 11 18.2879 14.2688 16.145 18.1913C15.1405 20.03 14 21.2695 14 23.7114C14 27.1981 17.5114 29 20.0057 29C22.5 29 26 27.7797 26 23.5085C26 20.8741 22 14.5592 22 14.5592Z" fill="#FF974A"/>
<path fill-rule="evenodd" clip-rule="evenodd" d="M18.5002 11C18.5002 11 18.1257 14.1609 16.5484 17C15.5439 18.8081 14.5483 20 14.048 22.5C13.2478 26.5 16.5483 29 20.0479 29C22.0002 29 24.1058 24.8028 20.5002 23C17.5002 21.5 19.9567 18.8635 20.0002 16C20.0002 13 19.5002 12.5 18.5002 11Z" fill="#FF974A"/>
</svg>
