<svg width="24" height="20" viewBox="0 0 24 20" fill="none" xmlns="http://www.w3.org/2000/svg">
<mask id="mask0_4850_74667" style="mask-type:alpha" maskUnits="userSpaceOnUse" x="1" y="-1" width="22" height="22">
<path opacity="0.3" fill-rule="evenodd" clip-rule="evenodd" d="M12 19.625C17.3157 19.625 21.625 15.3157 21.625 10C21.625 4.68426 17.3157 0.375 12 0.375C6.68426 0.375 2.375 4.68426 2.375 10C2.375 15.3157 6.68426 19.625 12 19.625Z" fill="#3DD598"/>
<path d="M16.3715 6.16621C16.717 5.79611 17.297 5.7761 17.6671 6.12154C18.0372 6.46697 18.0572 7.04702 17.7118 7.41713L11.2952 14.2921C10.96 14.6512 10.4014 14.6823 10.0285 14.3627L6.82012 11.6127C6.43574 11.2832 6.39123 10.7045 6.7207 10.3201C7.05017 9.93573 7.62886 9.89121 8.01324 10.2207L10.5544 12.3988L16.3715 6.16621Z" fill="#3DD598"/>
</mask>
<g mask="url(#mask0_4850_74667)">
<rect y="-2" width="24" height="24" fill="#3DD598"/>
</g>
</svg>
