<svg width="40" height="40" viewBox="0 0 40 40" fill="none" xmlns="http://www.w3.org/2000/svg">
<rect width="40" height="40" rx="8" fill="#FFC542" fill-opacity="0.1"/>
<path opacity="0.4" d="M26.5224 17.2992L27.4946 14.9673L29.8265 13.9951C29.8786 13.9691 29.9225 13.9291 29.9531 13.8796C29.9837 13.8301 30 13.7731 30 13.7148C30 13.6566 29.9837 13.5996 29.9531 13.55C29.9225 13.5005 29.8786 13.4606 29.8265 13.4346L27.4946 12.4624L26.5224 10.1305C26.4964 10.0784 26.4565 10.0345 26.407 10.0039C26.3575 9.97326 26.3004 9.95703 26.2422 9.95703C26.184 9.95703 26.1269 9.97326 26.0774 10.0039C26.0279 10.0345 25.9879 10.0784 25.9619 10.1305L24.9897 12.4624L22.6578 13.4346C22.6057 13.4606 22.5619 13.5005 22.5312 13.55C22.5006 13.5996 22.4844 13.6566 22.4844 13.7148C22.4844 13.7731 22.5006 13.8301 22.5312 13.8796C22.5619 13.9291 22.6057 13.9691 22.6578 13.9951L24.9897 14.9673L25.9619 17.2992C25.9879 17.3513 26.0279 17.3951 26.0774 17.4258C26.1269 17.4564 26.184 17.4726 26.2422 17.4726C26.3004 17.4726 26.3575 17.4564 26.407 17.4258C26.4565 17.3951 26.4964 17.3513 26.5224 17.2992ZM25.9619 22.655L24.9897 24.9869L22.6578 25.9591C22.6057 25.9851 22.5619 26.0251 22.5312 26.0746C22.5006 26.1241 22.4844 26.1811 22.4844 26.2393C22.4844 26.2976 22.5006 26.3546 22.5312 26.4041C22.5619 26.4536 22.6057 26.4936 22.6578 26.5196L24.9897 27.4918L25.9619 29.8237C25.9879 29.8758 26.0279 29.9196 26.0774 29.9503C26.1269 29.9809 26.184 29.9971 26.2422 29.9971C26.3004 29.9971 26.3575 29.9809 26.407 29.9503C26.4565 29.9196 26.4964 29.8758 26.5224 29.8237L27.4946 27.4918L29.8265 26.5196C29.8786 26.4936 29.9225 26.4536 29.9531 26.4041C29.9837 26.3546 30 26.2976 30 26.2393C30 26.1811 29.9837 26.1241 29.9531 26.0746C29.9225 26.0251 29.8786 25.9851 29.8265 25.9591L27.4946 24.9869L26.5224 22.655C26.4964 22.6029 26.4565 22.559 26.407 22.5284C26.3575 22.4978 26.3004 22.4815 26.2422 22.4815C26.184 22.4815 26.1269 22.4978 26.0774 22.5284C26.0279 22.559 25.9879 22.6029 25.9619 22.655Z" fill="#FFC542"/>
<path d="M24.9897 19.9631C24.9896 19.8468 24.9572 19.7327 24.8961 19.6337C24.8351 19.5347 24.7477 19.4546 24.6438 19.4023L20.2379 17.1952L18.0351 12.7815C17.8222 12.356 17.1275 12.356 16.915 12.7815L14.7122 17.1952L10.3063 19.4023C10.2018 19.4541 10.1138 19.5341 10.0523 19.6332C9.99084 19.7323 9.95825 19.8467 9.95825 19.9633C9.95825 20.08 9.99084 20.1943 10.0523 20.2934C10.1138 20.3926 10.2018 20.4726 10.3063 20.5244L14.7122 22.7314L16.915 27.1451C16.967 27.2491 17.0469 27.3366 17.1458 27.3977C17.2448 27.4589 17.3588 27.4912 17.475 27.4912C17.5913 27.4912 17.7053 27.4589 17.8042 27.3977C17.9032 27.3366 17.9831 27.2491 18.0351 27.1451L20.2379 22.7314L24.6438 20.5252C24.7478 20.4727 24.8353 20.3924 24.8964 20.2932C24.9575 20.1939 24.9898 20.0797 24.9897 19.9631Z" fill="#FFC542"/>
</svg>
