<svg width="40" height="40" viewBox="0 0 40 40" fill="none" xmlns="http://www.w3.org/2000/svg">
<rect width="40" height="40" rx="8" fill="#50B5FF" fill-opacity="0.1"/>
<path fill-rule="evenodd" clip-rule="evenodd" d="M28.5508 11.9489C28.5508 11.9822 28.5564 12.1962 28.5676 12.5908C28.5787 12.9854 28.5676 13.4689 28.5341 14.0413C28.5007 14.6137 28.4339 15.239 28.3337 15.917C28.2335 16.595 28.072 17.2341 27.8493 17.8343C27.6601 18.3345 27.4429 18.7819 27.198 19.1765C26.953 19.5711 26.5633 20.0018 26.0288 20.4686C25.6613 20.8021 25.0935 21.1633 24.3252 21.5523C23.5569 21.9413 22.8721 22.3081 22.2708 22.6527C22.0481 22.775 21.8282 22.8945 21.611 23.0112C21.3939 23.1279 21.2185 23.2307 21.0849 23.3196V26.0706C21.0849 26.1484 21.0682 26.2234 21.0348 26.2957C21.0014 26.3679 20.9569 26.4263 20.9012 26.4707L18.9136 28.4381C18.8691 28.4826 18.8162 28.5159 18.7549 28.5381C18.6937 28.5604 18.6297 28.5715 18.5629 28.5715C18.5406 28.5715 18.5155 28.5687 18.4877 28.5631C18.4599 28.5576 18.4348 28.5493 18.4125 28.5381C18.3235 28.5159 18.2455 28.4687 18.1787 28.3964C18.1119 28.3242 18.0674 28.2436 18.0451 28.1547L17.3937 25.4037L16.1911 24.0699C15.9016 23.7475 15.6622 23.4836 15.4729 23.2779C15.2836 23.0723 15.1389 22.9028 15.0387 22.7694L11.8485 22.0358C11.7483 22.0136 11.6648 21.9719 11.598 21.9108C11.5312 21.8496 11.4811 21.7746 11.4477 21.6857C11.4254 21.5857 11.4226 21.4912 11.4393 21.4023C11.456 21.3133 11.4978 21.2355 11.5646 21.1688L13.5188 19.0348C13.5744 18.9792 13.6357 18.9375 13.7025 18.9097C13.7693 18.8819 13.8417 18.868 13.9196 18.868H16.8926C16.9817 18.7013 17.0819 18.5123 17.1933 18.3012C17.3046 18.09 17.416 17.8677 17.5273 17.6343C17.8168 17.0452 18.1258 16.4338 18.4543 15.8003C18.7828 15.1667 19.1196 14.6554 19.4648 14.2664C19.8656 13.7884 20.2888 13.3911 20.7342 13.0743C21.1796 12.7575 21.6639 12.5047 22.1873 12.3157C22.8999 12.0489 23.607 11.8516 24.3085 11.7238C25.01 11.596 25.6391 11.5126 26.1958 11.4737C26.7526 11.4348 27.2007 11.4209 27.5404 11.432L28.0498 11.4487C28.1834 11.4598 28.2975 11.5126 28.3922 11.6071C28.4868 11.7016 28.5397 11.8155 28.5508 11.9489Z" fill="#B3D0FF"/>
<path fill-rule="evenodd" clip-rule="evenodd" d="M23.214 19.0815C23.8359 19.0815 24.374 18.8543 24.8284 18.3999C25.2828 17.9455 25.51 17.4074 25.51 16.7856C25.51 16.1638 25.2828 15.6256 24.8284 15.1712C24.374 14.7168 23.8359 14.4896 23.214 14.4896C22.5683 14.4896 22.0242 14.7168 21.5818 15.1712C21.1393 15.6256 20.9181 16.1638 20.9181 16.7856C20.9181 17.4074 21.1393 17.9455 21.5818 18.3999C22.0242 18.8543 22.5683 19.0815 23.214 19.0815Z" fill="white"/>
<path fill-rule="evenodd" clip-rule="evenodd" d="M23.214 19.0815C23.8359 19.0815 24.374 18.8543 24.8284 18.3999C25.2828 17.9455 25.51 17.4074 25.51 16.7856C25.51 16.1638 25.2828 15.6256 24.8284 15.1712C24.374 14.7168 23.8359 14.4896 23.214 14.4896C22.5683 14.4896 22.0242 14.7168 21.5818 15.1712C21.1393 15.6256 20.9181 16.1638 20.9181 16.7856C20.9181 17.4074 21.1393 17.9455 21.5818 18.3999C22.0242 18.8543 22.5683 19.0815 23.214 19.0815Z" fill="white" stroke="#0062FF"/>
<path d="M16.0408 26.404C16.0853 26.304 16.1577 26.1706 16.2579 26.0039L14.0031 23.6364C13.8472 23.7586 13.6997 23.8559 13.5605 23.9281C13.4213 24.0004 13.2793 24.0698 13.1346 24.1365C12.5667 24.4144 12.1436 24.784 11.8652 25.2453C11.5868 25.7065 11.4476 26.6041 11.4476 27.9379L11.4643 28.4881L11.9821 28.4714C13.4074 28.4714 14.3483 28.3186 14.8048 28.0129C15.2613 27.7072 15.6232 27.2821 15.8904 26.7375C15.9461 26.6152 15.9962 26.504 16.0408 26.404Z" fill="#FF974A"/>
</svg>
