<svg width="40" height="40" viewBox="0 0 40 40" fill="none" xmlns="http://www.w3.org/2000/svg">
<rect width="40" height="40" rx="8" fill="#3DD598" fill-opacity="0.1"/>
<path opacity="0.3" fill-rule="evenodd" clip-rule="evenodd" d="M20 30C25.5228 30 30 25.5228 30 20C30 14.4772 25.5228 10 20 10C14.4772 10 10 14.4772 10 20C10 25.5228 14.4772 30 20 30Z" fill="#3DD598"/>
<path fill-rule="evenodd" clip-rule="evenodd" d="M18.5911 21.209V22.868H19.8511C22.3921 22.868 24.3871 20.915 24.3871 18.395C24.3871 15.875 22.3921 13.922 19.8511 13.922C17.3101 13.922 15.3361 15.875 15.3361 18.395H17.1211C17.1211 16.799 18.2341 15.581 19.8511 15.581C21.4471 15.581 22.6021 16.799 22.6021 18.395C22.6021 19.991 21.4471 21.209 19.8511 21.209H18.5911ZM20 24C19.4477 24 19 24.4477 19 25C19 25.5523 19.4477 26 20 26C20.5523 26 21 25.5523 21 25C21 24.4477 20.5523 24 20 24Z" fill="#3DD598"/>
</svg>
