<svg width="51" height="22" viewBox="0 0 51 22" fill="none" xmlns="http://www.w3.org/2000/svg">
<rect width="51" height="22" rx="11" fill="#FF974A"/>
<path d="M12.32 12.848H8.48V11.408H12.32V12.848ZM17.2129 16.192C16.3062 16.192 15.5009 16.032 14.7969 15.712C14.1035 15.392 13.5649 14.976 13.1809 14.464L14.1889 13.232C14.5302 13.6267 14.9675 13.9413 15.5009 14.176C16.0342 14.4107 16.5835 14.528 17.1489 14.528C17.8422 14.528 18.3862 14.384 18.7809 14.096C19.1755 13.7973 19.3729 13.3973 19.3729 12.896C19.3729 11.8933 18.5835 11.392 17.0049 11.392C16.2902 11.392 15.8795 11.3973 15.7729 11.408V9.728C15.9009 9.73867 16.3115 9.744 17.0049 9.744C17.6662 9.744 18.1942 9.62667 18.5889 9.392C18.9942 9.15733 19.1969 8.80533 19.1969 8.336C19.1969 7.856 18.9942 7.488 18.5889 7.232C18.1835 6.96533 17.6662 6.832 17.0369 6.832C15.9915 6.832 15.0742 7.22667 14.2849 8.016L13.3249 6.848C14.2742 5.728 15.5702 5.168 17.2129 5.168C18.3755 5.168 19.3089 5.42933 20.0129 5.952C20.7169 6.464 21.0689 7.16267 21.0689 8.048C21.0689 8.70933 20.8342 9.25867 20.3649 9.696C19.9062 10.1227 19.3675 10.3893 18.7489 10.496C19.3569 10.5493 19.9222 10.8053 20.4449 11.264C20.9675 11.7227 21.2289 12.3307 21.2289 13.088C21.2289 14.0053 20.8609 14.752 20.1249 15.328C19.3995 15.904 18.4289 16.192 17.2129 16.192ZM25.9684 16H23.9204L27.9524 6.976H22.4164V5.328H30.1124V6.624L25.9684 16ZM33.588 10.464C32.8093 10.464 32.1747 10.2187 31.684 9.728C31.1933 9.22667 30.948 8.59733 30.948 7.84C30.948 7.072 31.1933 6.43733 31.684 5.936C32.1747 5.424 32.8093 5.168 33.588 5.168C34.3773 5.168 35.0173 5.424 35.508 5.936C36.0093 6.43733 36.26 7.072 36.26 7.84C36.26 8.59733 36.0093 9.22667 35.508 9.728C35.0173 10.2187 34.3773 10.464 33.588 10.464ZM33.62 16H32.564L39.38 5.328H40.452L33.62 16ZM41.236 15.456C40.7453 15.9467 40.1107 16.192 39.332 16.192C38.5533 16.192 37.9187 15.9467 37.428 15.456C36.9373 14.9547 36.692 14.3253 36.692 13.568C36.692 12.8 36.9373 12.1653 37.428 11.664C37.9187 11.152 38.5533 10.896 39.332 10.896C40.1107 10.896 40.7453 11.152 41.236 11.664C41.7373 12.176 41.988 12.8107 41.988 13.568C41.988 14.3253 41.7373 14.9547 41.236 15.456ZM33.588 9.408C34.004 9.408 34.3453 9.264 34.612 8.976C34.8787 8.67733 35.012 8.29867 35.012 7.84C35.012 7.36 34.8787 6.976 34.612 6.688C34.3453 6.38933 34.004 6.24 33.588 6.24C33.172 6.24 32.8307 6.38933 32.564 6.688C32.308 6.976 32.18 7.36 32.18 7.84C32.18 8.29867 32.3133 8.67733 32.58 8.976C32.8467 9.264 33.1827 9.408 33.588 9.408ZM38.308 14.704C38.5747 14.992 38.916 15.136 39.332 15.136C39.748 15.136 40.0893 14.992 40.356 14.704C40.6227 14.4053 40.756 14.0267 40.756 13.568C40.756 13.088 40.6227 12.704 40.356 12.416C40.0893 12.1173 39.748 11.968 39.332 11.968C38.916 11.968 38.5747 12.1173 38.308 12.416C38.052 12.704 37.924 13.088 37.924 13.568C37.924 14.0267 38.052 14.4053 38.308 14.704Z" fill="white"/>
</svg>
